<?xml version="1.0" encoding="UTF-8"?>
<!-- Generator: visioncortex VTracer 0.6.5 -->
<svg version="1.1" xmlns="http://www.w3.org/2000/svg" width="768" height="768">
<path d="M0 0 C253.44 0 506.88 0 768 0 C768 253.44 768 506.88 768 768 C514.56 768 261.12 768 0 768 C0 514.56 0 261.12 0 0 Z M333 103 C331.93 103.2 330.86 103.41 329.76 103.62 C314.76 106.52 300.2 110.3 286 116 C285.24 116.3 284.49 116.6 283.71 116.91 C268.04 123.27 253.39 131.47 239.81 141.56 C239.12 142.08 238.43 142.59 237.72 143.12 C234.18 145.84 234.18 145.84 233 147 C233 147.66 233 148.32 233 149 C231.68 149.33 230.36 149.66 229 150 C229 150.33 229 150.66 229 151 C229.49 151.01 229.49 151.01 231.94 151.04 C235.64 151.1 239.33 151.18 243.02 151.26 C244.6 151.3 246.18 151.32 247.76 151.35 C264.14 151.59 279.37 154.12 295 159 C295 159.66 295 160.32 295 161 C293.59 162.25 292.12 163.42 290.62 164.56 C286.06 168.11 281.74 171.86 277.46 175.76 C274.29 178.65 271.05 181.46 267.81 184.27 C266.23 185.78 265.1 187.13 264 189 C259.48 188.6 254.98 188.16 250.49 187.49 C220.58 183.03 190.22 189.6 165.7 207.74 C157.65 213.93 150.14 220.77 143 228 C142.59 228.41 142.19 228.81 141.77 229.23 C120.23 250.93 97.22 288.23 96.9 319.73 C97.05 324.8 97.05 324.8 99 327 C105.09 329.25 109.4 326.92 115.11 324.35 C115.59 324.13 115.59 324.13 118 323 C119.41 322.39 120.83 321.78 122.25 321.19 C122.7 320.99 122.7 320.99 125 320 C124.67 320.66 124.34 321.32 124 322 C123.9 323.94 123.87 325.88 123.87 327.82 C123.87 328.4 123.87 328.98 123.86 329.57 C123.86 330.8 123.87 332.02 123.87 333.25 C123.87 335.1 123.87 336.95 123.86 338.8 C123.86 348.74 123.86 348.74 124.79 353.46 C125.21 356.4 124.84 357.81 123.19 360.28 C122.33 361.37 121.45 362.44 120.56 363.5 C99.4 390.91 92.76 429.64 96.53 463.48 C99.71 487.56 107.03 513.84 126.9 529.5 C134.57 534.77 143.16 536.8 152.37 535.57 C160.03 533.91 166.08 530.01 172 525 C172.56 524.53 173.12 524.07 173.7 523.59 C187.67 510.86 196.17 490.85 205.37 474.57 C220.25 448.28 241.41 434.21 268.23 421.5 C273.61 418.93 278.17 416.66 282 412 C282.58 411.3 283.15 410.6 283.75 409.88 C285 408 285 408 286 405 C300.09 401.87 313.34 400.55 327.71 401.06 C336.41 401.29 345.92 401.07 353.59 396.44 C356.1 394.94 357.62 394.54 360.5 394.3 C361.37 394.23 362.25 394.15 363.15 394.08 C364.09 394.01 365.03 393.94 366 393.88 C366.49 393.84 366.49 393.84 368.98 393.64 C381.96 392.68 394.99 392.34 408 392 C407.39 393.28 406.77 394.55 406.14 395.82 C405.8 396.53 405.46 397.24 405.1 397.98 C404.1 399.82 403.06 401.25 401.69 402.81 C401.13 403.53 400.57 404.26 400 405 C400.33 405.99 400.66 406.98 401 408 C413.83 413.62 431.63 412.45 444.91 409.27 C451.68 407.7 458.53 407.14 465.43 406.45 C473.83 405.6 482.03 404.3 490.31 402.66 C500.25 400.69 509.58 399.7 519.75 399.94 C529.85 400.16 538.5 399.52 548 396 C548.63 395.77 549.26 395.54 549.91 395.3 C571.35 387.17 590.01 374.3 606 358 C606.87 357.16 607.73 356.31 608.6 355.47 C629.5 333.92 641.22 305.92 641.25 276 C641.25 275.4 641.25 274.79 641.25 274.17 C641.24 264.81 640.72 256.02 638 247 C637.81 246.35 637.61 245.7 637.42 245.03 C635.41 238.41 633.22 232.15 630 226 C629.79 225.58 629.79 225.58 628.71 223.46 C618.88 204.87 604.31 185.93 586 175 C585.01 175 584.02 175 583 175 C583 174.34 583 173.68 583 173 C570.85 166.24 558.72 159.63 546 154 C545.67 154.66 545.34 155.32 545 156 C545.33 156.66 545.66 157.32 546 158 C516.58 158.12 516.58 158.12 506.82 148.69 C504.06 145.63 501.47 142.46 498.92 139.22 C495.78 135.59 492.11 132.49 488 130 C487.01 130 486.02 130 485 130 C484.67 129.01 484.34 128.02 484 127 C482.72 125.96 482.72 125.96 481.07 125.02 C480.45 124.66 479.83 124.31 479.19 123.94 C478.51 123.57 477.83 123.2 477.12 122.81 C476.41 122.42 475.69 122.03 474.96 121.62 C453.69 110.19 430.89 104.1 407 101 C406.66 100.95 406.66 100.95 404.96 100.71 C381.71 97.88 355.97 98.49 333 103 Z M664 326 C663.91 326.56 663.82 327.12 663.73 327.69 C661.73 339.78 659.31 350.93 654 362 C653.86 362.31 653.86 362.31 653.13 363.86 C642.84 385.48 625.86 402.89 606 416 C605.37 416.42 604.75 416.83 604.1 417.26 C571.03 438.89 530.86 448.1 492.19 453.31 C491.59 453.39 490.99 453.48 490.37 453.56 C473.15 455.86 456.01 456.15 438.66 456.2 C434.76 456.21 430.86 456.23 426.96 456.25 C415.87 456.31 404.79 456.37 393.7 456.4 C387.55 456.42 381.4 456.45 375.25 456.49 C372.02 456.51 368.79 456.53 365.56 456.53 C344.71 456.55 323.62 457.32 303.38 462.81 C302.39 463.07 301.4 463.33 300.39 463.59 C272.62 471.09 248.55 486.12 231 509 C230.67 509.41 230.67 509.41 228.98 511.47 C212.95 531.93 206.5 557.98 209.28 583.62 C212.86 608.85 225.06 629.84 245.16 645.54 C272.69 665.94 310.36 675.72 344 679 C344.89 679.09 345.77 679.17 346.68 679.26 C399.75 683.92 453.12 675.76 501 652 C501.9 651.56 502.8 651.12 503.73 650.67 C526.5 639.49 547.14 625.42 566.58 609.18 C568.02 607.98 569.48 606.8 570.95 605.62 C584.01 594.97 596.63 582.98 606.83 569.53 C608.23 567.7 609.65 565.89 611.07 564.08 C656.92 505.32 680.43 431.32 671.38 356.77 C668.48 335.43 668.48 335.43 665 326 C664.67 326 664.34 326 664 326 Z " fill="none" transform="translate(0,0)"/>
<path d="M0 0 C2.18 2.18 2.39 2.94 3 5.86 C3.16 6.65 3.33 7.43 3.5 8.25 C3.66 9.07 3.83 9.9 4 10.75 C4.16 11.53 4.33 12.31 4.5 13.11 C5.04 15.74 5.53 18.36 6 21 C6.09 21.5 6.09 21.5 6.57 24.05 C8.3 34.49 8.23 44.81 8.12 55.38 C8.11 57.19 8.11 59.01 8.1 60.82 C8.08 65.21 8.04 69.61 8 74 C7.34 74 6.68 74 6 74 C6 80.6 6 87.2 6 94 C5.67 94 5.34 94 5 94 C4.67 97.96 4.34 101.92 4 106 C3.67 106 3.34 106 3 106 C2.67 111.28 2.34 116.56 2 122 C0.68 122.33 -0.64 122.66 -2 123 C-1.96 123.68 -1.92 124.36 -1.88 125.06 C-2.03 128.67 -2.92 131.56 -4 135 C-4.66 135 -5.32 135 -6 135 C-6 137.64 -6 140.28 -6 143 C-6.66 143 -7.32 143 -8 143 C-8 146.63 -8 150.26 -8 154 C-9.65 154.33 -11.3 154.66 -13 155 C-13.33 157.97 -13.66 160.94 -14 164 C-14.66 164 -15.32 164 -16 164 C-16 165.98 -16 167.96 -16 170 C-19.29 170.8 -20.71 171.1 -24 170 C-24 171.32 -24 172.64 -24 174 C-22.68 173.34 -21.36 172.68 -20 172 C-20 173.98 -20 175.96 -20 178 C-20.99 178 -21.98 178 -23 178 C-22.67 179.32 -22.34 180.64 -22 182 C-22.66 182 -23.32 182 -24 182 C-24.1 182.68 -24.21 183.36 -24.31 184.06 C-25.15 187.63 -26.49 190.66 -28 194 C-28.99 194 -29.98 194 -31 194 C-31.33 197.3 -31.66 200.6 -32 204 C-32.66 204 -33.32 204 -34 204 C-34 203.34 -34 202.68 -34 202 C-35.98 202 -37.96 202 -40 202 C-39.67 202.99 -39.34 203.98 -39 205 C-39.06 207.04 -39.19 209.09 -39.38 211.12 C-39.47 212.2 -39.56 213.28 -39.65 214.38 C-40 217 -40 217 -41 218 C-43.34 218.14 -45.66 218.04 -48 218 C-47.34 219.98 -46.68 221.96 -46 224 C-46.66 224 -47.32 224 -48 224 C-48 224.66 -48 225.32 -48 226 C-48.66 226 -49.32 226 -50 226 C-50 226.66 -50 227.32 -50 228 C-53 229 -53 229 -56 228 C-55.67 229.98 -55.34 231.96 -55 234 C-55.99 234 -56.98 234 -58 234 C-58 235.98 -58 237.96 -58 240 C-58.66 240.33 -58.66 240.33 -62 242 C-62.66 241.34 -63.32 240.68 -64 240 C-64.66 240 -65.32 240 -66 240 C-66 241.32 -66 242.64 -66 244 C-64.68 244.33 -63.36 244.66 -62 245 C-62.66 245.33 -63.32 245.66 -64 246 C-64 247.65 -64 249.3 -64 251 C-65.32 250.67 -66.64 250.34 -68 250 C-68 250.66 -68 251.32 -68 252 C-68.66 252 -69.32 252 -70 252 C-70 251.34 -70 250.68 -70 250 C-71.32 250 -72.64 250 -74 250 C-74.14 250.76 -74.29 251.53 -74.44 252.31 C-75 255 -75 255 -76 258 C-77.32 258 -78.64 258 -80 258 C-80 259.32 -80 260.64 -80 262 C-80.66 262 -81.32 262 -82 262 C-82 263.32 -82 264.64 -82 266 C-83.98 266 -85.96 266 -88 266 C-87.67 266.99 -87.34 267.98 -87 269 C-87.44 271.69 -87.44 271.69 -88 274 C-90.64 274 -93.28 274 -96 274 C-96 275.32 -96 276.64 -96 278 C-96.66 278 -97.32 278 -98 278 C-98 279.32 -98 280.64 -98 282 C-99.32 282 -100.64 282 -102 282 C-102 281.34 -102 280.68 -102 280 C-102.66 280 -103.32 280 -104 280 C-104.33 281.98 -104.66 283.96 -105 286 C-106.98 285.34 -108.96 284.68 -111 284 C-111.33 285.98 -111.66 287.96 -112 290 C-113.98 290.33 -115.96 290.66 -118 291 C-118.66 293.31 -119.32 295.62 -120 298 C-125.75 299.12 -125.75 299.12 -128 298 C-128 299.32 -128 300.64 -128 302 C-128.66 302 -129.32 302 -130 302 C-130 302.66 -130 303.32 -130 304 C-133.75 305.12 -133.75 305.12 -136 304 C-136 304.66 -136 305.32 -136 306 C-136.99 306 -137.98 306 -139 306 C-139 305.34 -139 304.68 -139 304 C-140.94 304.75 -140.94 304.75 -143 306 C-143.75 308.12 -143.75 308.12 -144 310 C-145.32 310 -146.64 310 -148 310 C-148 310.66 -148 311.32 -148 312 C-146.68 312 -145.36 312 -144 312 C-144 312.66 -144 313.32 -144 314 C-143.34 314.33 -142.68 314.66 -142 315 C-143.32 315.33 -144.64 315.66 -146 316 C-146 315.34 -146 314.68 -146 314 C-155.41 314.96 -155.41 314.96 -160 316 C-159.67 316.99 -159.34 317.98 -159 319 C-159.33 319.99 -159.66 320.98 -160 322 C-162.31 322 -164.62 322 -167 322 C-167.33 322.66 -167.66 323.32 -168 324 C-169.65 324 -171.3 324 -173 324 C-173.33 324.66 -173.66 325.32 -174 326 C-174.66 326 -175.32 326 -176 326 C-176 326.66 -176 327.32 -176 328 C-178.64 328 -181.28 328 -184 328 C-184.33 328.99 -184.66 329.98 -185 331 C-187.31 330.67 -189.62 330.34 -192 330 C-191.67 331.32 -191.34 332.64 -191 334 C-191.99 334 -192.98 334 -194 334 C-194 334.66 -194 335.32 -194 336 C-194.66 336 -195.32 336 -196 336 C-196 336.66 -196 337.32 -196 338 C-197.32 338 -198.64 338 -200 338 C-200 338.99 -200 339.98 -200 341 C-241.39 353.14 -285.04 358.49 -328 352 C-328.87 351.87 -329.73 351.74 -330.63 351.61 C-365.44 346.25 -365.44 346.25 -376 340 C-376.75 337.88 -376.75 337.88 -377 336 C-378.65 336 -380.3 336 -382 336 C-382 335.34 -382 334.68 -382 334 C-383.98 333.67 -385.96 333.34 -388 333 C-388 332.01 -388 331.02 -388 330 C-389.32 330 -390.64 330 -392 330 C-392 329.34 -392 328.68 -392 328 C-395.3 328 -398.6 328 -402 328 C-402 327.34 -402 326.68 -402 326 C-402.66 326 -403.32 326 -404 326 C-404 325.34 -404 324.68 -404 324 C-406.98 323.23 -409.98 322.59 -413 322 C-413.33 320.68 -413.66 319.36 -414 318 C-415.32 318 -416.64 318 -418 318 C-418 316.68 -418 315.36 -418 314 C-418.52 314.05 -418.52 314.05 -421.16 314.29 C-424.69 314.28 -426.51 313.34 -429.07 310.8 C-429.29 310.56 -429.29 310.56 -430.38 309.38 C-430.61 309.13 -430.61 309.13 -431.78 307.91 C-437.03 302.21 -441.19 295.72 -445 289 C-445.15 288.74 -445.15 288.74 -445.91 287.42 C-447.65 284.2 -448.35 281.78 -448.19 278.12 C-448.17 277.73 -448.17 277.73 -448.11 275.76 C-448.07 275.18 -448.04 274.6 -448 274 C-448.66 274 -449.32 274 -450 274 C-450.06 273.01 -450.12 272.03 -450.18 271.01 C-450.27 269.71 -450.35 268.42 -450.44 267.12 C-450.48 266.47 -450.52 265.82 -450.56 265.15 C-450.89 260.23 -450.89 260.23 -452 258 C-452.11 255.69 -452.16 253.4 -452.17 251.09 C-452.17 250.4 -452.17 249.71 -452.18 249 C-452.18 247.54 -452.19 246.08 -452.19 244.62 C-452.19 242.4 -452.21 240.19 -452.22 237.98 C-452.25 231.02 -452.22 224.68 -450 218 C-449.34 218 -448.68 218 -448 218 C-447.9 217.44 -447.79 216.89 -447.69 216.31 C-447 214 -447 214 -445.44 211.81 C-443.9 208.81 -443.96 208.12 -444.25 204.94 C-444.47 198.28 -440.62 193.27 -437 188 C-436.36 187.05 -435.73 186.1 -435.07 185.12 C-431.29 179.9 -428.39 176.95 -421.98 175.6 C-419.58 174.87 -418.57 173.94 -417 172 C-416.71 171.13 -416.42 170.27 -416.12 169.38 C-415.75 168.59 -415.38 167.81 -415 167 C-412.38 166.19 -412.38 166.19 -410 166 C-410 165.34 -410 164.68 -410 164 C-409.34 164 -408.68 164 -408 164 C-407.79 162.93 -407.57 161.86 -407.36 160.75 C-406.37 157.36 -405.07 155.77 -401.97 153.9 C-401.69 153.75 -401.69 153.75 -400.31 153 C-399.73 152.67 -399.16 152.34 -398.56 152 C-396.72 150.97 -394.87 149.98 -393 149 C-392.43 148.69 -391.85 148.38 -391.26 148.06 C-362.52 132.77 -329.32 130.72 -297.46 130.66 C-294.2 130.65 -290.94 130.63 -287.68 130.61 C-279.41 130.56 -271.14 130.53 -262.88 130.5 C-253.96 130.47 -245.05 130.43 -236.13 130.38 C-232.91 130.36 -229.69 130.34 -226.47 130.34 C-204.51 130.3 -182.71 129.31 -161 125.75 C-160.34 125.64 -159.67 125.54 -158.99 125.43 C-120.54 119.22 -76.61 108.24 -47.04 81.36 C-44.53 79.69 -42.96 79.73 -40 80 C-40 79.34 -40 78.68 -40 78 C-39.28 77.77 -38.56 77.55 -37.81 77.31 C-34.31 75.68 -32.63 73.84 -30 71 C-29.42 70.48 -28.85 69.97 -28.25 69.44 C-26.73 67.7 -26.39 66.25 -26 64 C-25.34 64 -24.68 64 -24 64 C-24.06 63.26 -24.12 62.53 -24.18 61.77 C-23.96 58.43 -23.12 57.34 -21.06 54.75 C-8.87 38.1 -3.04 20.18 0 0 Z M-98 214 C-99.55 215.57 -99.55 215.57 -101.31 217.69 C-104.51 221.45 -107.84 224.9 -111.38 228.34 C-114.9 231.8 -114.9 231.8 -116 234 C-114.19 234.31 -114.19 234.31 -112 234 C-110.97 232.35 -109.97 230.68 -109 229 C-108.01 229 -107.02 229 -106 229 C-105.67 228.34 -105.34 227.68 -105 227 C-104.38 226.87 -103.75 226.74 -103.11 226.61 C-100.31 225.8 -99.73 224.65 -98.25 222.19 C-97.82 221.5 -97.39 220.81 -96.95 220.11 C-95.94 217.87 -95.8 216.43 -96 214 C-96.66 214 -97.32 214 -98 214 Z M-145 260 C-146.15 260.66 -146.15 260.66 -152 264 C-152 264.66 -152 265.32 -152 266 C-152.72 266.25 -153.44 266.5 -154.19 266.75 C-157.28 268.12 -159.51 269.72 -162 272 C-162 272.66 -162 273.32 -162 274 C-162.73 274.26 -163.46 274.52 -164.21 274.78 C-167.1 276.04 -169.13 277.51 -171.56 279.5 C-174.28 281.72 -176.8 283.55 -180 285 C-180 285.66 -180 286.32 -180 287 C-182.33 288.21 -184.5 289.17 -187 290 C-187 290.66 -187 291.32 -187 292 C-187.66 292.16 -187.66 292.16 -191 293 C-191 293.99 -191 294.98 -191 296 C-189.06 295.69 -189.06 295.69 -187 295 C-186.67 294.01 -186.34 293.02 -186 292 C-183.71 290.63 -181.54 289.85 -179 289 C-178.67 288.34 -178.34 287.68 -178 287 C-177.32 286.75 -176.64 286.5 -175.94 286.25 C-172.47 284.78 -169.89 282.76 -166.93 280.45 C-165 279 -165 279 -162.06 277.31 C-160 276 -160 276 -159 273 C-158.01 273.33 -157.02 273.66 -156 274 C-156 272.68 -156 271.36 -156 270 C-155.34 270 -154.68 270 -154 270 C-153.42 269.42 -152.85 268.85 -152.25 268.25 C-149.68 265.68 -147.06 263.95 -144 262 C-144.16 261.67 -144.16 261.67 -145 260 Z " fill="#EFC7A2" transform="translate(664,326)"/>
<path d="M0 0 C0.9 0 1.79 0 2.71 0 C5.54 0.01 8.36 0.02 11.18 0.04 C13.11 0.04 15.04 0.04 16.97 0.05 C21.66 0.06 26.36 0.08 31.05 0.1 C31.05 0.43 31.05 0.76 31.05 1.1 C33.69 1.43 36.33 1.76 39.05 2.1 C39.05 2.76 39.05 3.42 39.05 4.1 C41.69 4.1 44.33 4.1 47.05 4.1 C47.05 4.76 47.05 5.42 47.05 6.1 C48.03 5.96 49 5.81 50 5.67 C72.12 3.07 93.16 12.88 112.12 23.41 C112.71 23.74 113.3 24.06 113.91 24.4 C117.93 26.73 117.93 26.73 119.05 30.1 C120.39 30.44 121.72 30.77 123.05 31.1 C129.49 35.55 135.19 41.04 140.74 46.54 C141.01 46.8 141.01 46.8 142.35 48.11 C146.05 51.85 146.05 51.85 146.05 54.1 C145.39 54.1 144.73 54.1 144.05 54.1 C144.05 55.09 144.05 56.08 144.05 57.1 C145.37 57.76 146.69 58.42 148.05 59.1 C148.05 59.76 148.05 60.42 148.05 61.1 C148.71 61.1 149.37 61.1 150.05 61.1 C150.05 61.76 150.05 62.42 150.05 63.1 C149.39 63.1 148.73 63.1 148.05 63.1 C147.72 64.75 147.39 66.4 147.05 68.1 C148.37 67.44 149.69 66.78 151.05 66.1 C154.29 67.72 154.78 69.84 156.05 73.1 C157.03 74.12 158.03 75.12 159.05 76.1 C159.38 77.09 159.71 78.08 160.05 79.1 C161.04 79.1 162.03 79.1 163.05 79.1 C179.81 119.21 179.22 166.95 166.05 208.1 C165.8 208.9 165.55 209.7 165.29 210.52 C157.87 233.84 147.14 255.51 131.05 274.1 C130.34 274.94 129.62 275.78 128.88 276.64 C113.74 293.92 93.56 308.89 70.05 311.1 C58.1 311.85 46.54 311.74 35.05 308.1 C34.63 304.26 35.89 302.45 38.05 299.35 C45.54 288.13 50.98 275.92 55.05 263.1 C55.35 262.19 55.65 261.28 55.95 260.34 C66.21 226.29 59.69 185.85 43.43 154.66 C30.4 130.62 10.81 108.58 -10.95 92.1 C-11.5 91.67 -12.06 91.24 -12.63 90.8 C-27.77 79.22 -43.36 70.46 -60.95 63.1 C-61.66 62.8 -62.37 62.5 -63.11 62.19 C-78.1 55.96 -94.02 52.15 -110.29 51.78 C-110.67 51.77 -110.67 51.77 -112.61 51.72 C-115.03 51.65 -117.46 51.59 -119.88 51.54 C-121.54 51.49 -123.19 51.45 -124.85 51.4 C-128.88 51.3 -132.91 51.2 -136.95 51.1 C-136.62 50.44 -136.29 49.78 -135.95 49.1 C-134.96 49.1 -133.97 49.1 -132.95 49.1 C-132.68 48.49 -132.42 47.89 -132.15 47.26 C-130.87 44.97 -129.85 43.98 -127.73 42.47 C-127.08 42 -126.42 41.52 -125.74 41.04 C-125.03 40.54 -124.31 40.05 -123.57 39.54 C-122.81 39.01 -122.06 38.49 -121.28 37.95 C-86.51 14.29 -42.3 -0.26 0 0 Z " fill="#5B2F18" transform="translate(365.9453125,99.90234375)"/>
<path d="M0 0 C6.25 -0.27 12.31 0.16 18.5 0.94 C19.21 1.02 19.91 1.11 20.64 1.2 C25.74 1.87 25.74 1.87 28 3 C30.04 3.23 32.08 3.41 34.12 3.56 C34.67 3.6 34.67 3.6 37.45 3.82 C37.87 3.85 37.87 3.85 40 4 C40 4.66 40 5.32 40 6 C41.65 6 43.3 6 45 6 C44.67 5.67 44.67 5.67 43 4 C49.87 5.2 55.8 7.41 62.06 10.44 C62.98 10.88 63.89 11.32 64.84 11.78 C73.51 16.07 81.32 21.15 89 27 C89.67 27.5 90.34 28.01 91.03 28.53 C109 42.2 125.37 59.33 135 80 C135.35 80.73 135.71 81.46 136.07 82.21 C145.85 102.53 151.44 122.44 151.31 145.06 C151.31 145.74 151.31 146.42 151.31 147.12 C151.2 168.85 148.93 189.88 133 206 C132.34 206.33 131.68 206.66 131 207 C130.01 206.67 129.02 206.34 128 206 C128 206.66 128 207.32 128 208 C125.36 208 122.72 208 120 208 C120 208.66 120 209.32 120 210 C116.04 210 112.08 210 108 210 C108 210.66 108 211.32 108 212 C103.38 212 98.76 212 94 212 C94 211.67 94 211.34 94 211 C96.64 210.67 99.28 210.34 102 210 C102 209.67 102 209.34 102 209 C99.36 208.67 96.72 208.34 94 208 C94 206.68 94 205.36 94 204 C91.36 204.66 88.72 205.32 86 206 C85.84 204.98 85.68 203.97 85.52 202.92 C82.78 186.35 76.16 172.54 66 159.19 C65.61 158.67 65.22 158.16 64.82 157.63 C59.41 150.72 53.24 145.08 46.06 140.06 C45.33 139.55 44.59 139.03 43.83 138.5 C36.57 133.53 29.02 129.59 21 126 C20.01 125.53 19.01 125.06 17.99 124.58 C0.49 117.01 -18.12 115.52 -36.94 115.44 C-37.75 115.43 -38.56 115.42 -39.4 115.41 C-59.64 115.26 -77.85 119.68 -95.45 129.75 C-99.92 132.2 -103 132.69 -108 132 C-108 132.66 -108 133.32 -108 134 C-110.64 134 -113.28 134 -116 134 C-116 133.34 -116 132.68 -116 132 C-116.66 132 -117.32 132 -118 132 C-118 126.72 -118 121.44 -118 116 C-118.66 116 -119.32 116 -120 116 C-120.21 110.23 -120.26 105.36 -118 100 C-117.34 100 -116.68 100 -116 100 C-115.88 99.45 -115.75 98.89 -115.62 98.32 C-114.93 95.74 -114 93.35 -113 90.88 C-112.65 90.01 -112.3 89.14 -111.94 88.24 C-111.34 86.81 -110.7 85.39 -110 84 C-109.34 84 -108.68 84 -108 84 C-108 83.34 -108 82.68 -108 82 C-107.34 82 -106.68 82 -106 82 C-106 80.68 -106 79.36 -106 78 C-105.01 77.67 -105.01 77.67 -100 76 C-100 75.34 -100 74.68 -100 74 C-99.34 74 -98.68 74 -98 74 C-97.34 72.02 -96.68 70.04 -96 68 C-96.66 68 -97.32 68 -98 68 C-95.46 58.83 -95.46 58.83 -91 56 C-90.25 53.81 -90.25 53.81 -90 52 C-89.34 52 -88.68 52 -88 52 C-87.67 51.01 -87.34 50.02 -87 49 C-84.94 48.31 -84.94 48.31 -83 48 C-82.67 46.68 -82.34 45.36 -82 44 C-81.34 44 -80.68 44 -80 44 C-80 43.34 -80 42.68 -80 42 C-79.34 42 -78.68 42 -78 42 C-78 41.34 -78 40.68 -78 40 C-77.34 40 -76.68 40 -76 40 C-76 39.01 -76 38.02 -76 37 C-75.34 37 -74.68 37 -74 37 C-73.75 36.36 -73.5 35.72 -73.25 35.06 C-72 33 -72 33 -69.88 32.25 C-69.26 32.17 -68.64 32.09 -68 32 C-68 31.34 -68 30.68 -68 30 C-67.34 30 -66.68 30 -66 30 C-66 29.34 -66 28.68 -66 28 C-65.34 28 -64.68 28 -64 28 C-64 27.34 -64 26.68 -64 26 C-62.02 25.01 -60.04 24.02 -58 23 C-58 22.01 -58 21.02 -58 20 C-51.79 19.05 -46.21 19.05 -40 20 C-40.33 19.18 -40.33 19.18 -42 15 C-29.34 6.35 -29.34 6.35 -24 7 C-24 6.34 -24 5.68 -24 5 C-21.29 3.65 -18.99 3.93 -16 4 C-16 3.34 -16 2.68 -16 2 C-10.72 2 -5.44 2 0 2 C0 1.34 0 0.68 0 0 Z " fill="#A6562E" transform="translate(224,188)"/>
<path d="M0 0 C0.79 -0.01 1.58 -0.02 2.4 -0.02 C4.08 -0.04 5.76 -0.05 7.43 -0.06 C9.11 -0.07 10.79 -0.09 12.47 -0.12 C28.14 -0.4 43.08 1.47 57.48 7.99 C58.27 8.33 59.05 8.67 59.86 9.03 C71.25 14.13 81.22 20.14 90.73 28.24 C91.57 28.87 92.4 29.5 93.26 30.14 C99.67 35.56 104.48 43.56 107.73 51.24 C107.94 51.7 107.94 51.7 108.98 54.05 C110.09 58.77 109.89 63.41 109.73 68.24 C109.07 68.24 108.41 68.24 107.73 68.24 C107.63 68.84 107.53 69.43 107.42 70.05 C106.64 72.55 105.77 73.61 103.73 75.24 C103.07 75.24 102.41 75.24 101.73 75.24 C101.4 72.6 101.07 69.96 100.73 67.24 C100.4 68.23 100.07 69.22 99.73 70.24 C99.07 70.24 98.41 70.24 97.73 70.24 C97.73 71.56 97.73 72.88 97.73 74.24 C99.05 74.9 100.37 75.56 101.73 76.24 C101.73 78.24 101.73 78.24 99.86 80.36 C97.73 82.24 97.73 82.24 95.73 82.24 C95.73 82.9 95.73 83.56 95.73 84.24 C94.41 84.24 93.09 84.24 91.73 84.24 C91.73 84.9 91.73 85.56 91.73 86.24 C90.41 86.24 89.09 86.24 87.73 86.24 C87.73 86.9 87.73 87.56 87.73 88.24 C86.41 88.24 85.09 88.24 83.73 88.24 C83.73 88.9 83.73 89.56 83.73 90.24 C82.41 90.24 81.09 90.24 79.73 90.24 C79.68 90.55 79.68 90.55 79.43 92.11 C78.73 94.24 78.73 94.24 77.36 95.36 C76.78 95.65 76.19 95.94 75.59 96.25 C74.94 96.59 74.29 96.93 73.62 97.28 C72.91 97.64 72.21 98 71.48 98.36 C64.54 102.05 58.42 106.25 52.31 111.17 C51.88 111.51 51.88 111.51 49.73 113.24 C49.25 113.63 48.76 114.02 48.26 114.43 C47.76 114.7 47.25 114.96 46.73 115.24 C46.24 115.07 46.24 115.07 43.73 114.24 C43.73 114.9 43.73 115.56 43.73 116.24 C43.07 116.24 42.41 116.24 41.73 116.24 C41.73 116.9 41.73 117.56 41.73 118.24 C41.24 118.4 41.24 118.4 38.73 119.24 C37.86 120.8 37.86 120.8 37.17 122.68 C36.23 125.23 35.72 126.25 33.73 128.24 C33.73 128.9 33.73 129.56 33.73 130.24 C33.07 130.24 32.41 130.24 31.73 130.24 C31.73 131.23 31.73 132.22 31.73 133.24 C31.07 133.24 30.41 133.24 29.73 133.24 C29.73 134.23 29.73 135.22 29.73 136.24 C29.07 136.24 28.41 136.24 27.73 136.24 C27.07 138.55 26.41 140.86 25.73 143.24 C25.07 143.24 24.41 143.24 23.73 143.24 C23.73 144.23 23.73 145.22 23.73 146.24 C23.07 146.24 22.41 146.24 21.73 146.24 C21.73 147.56 21.73 148.88 21.73 150.24 C21.07 150.24 20.41 150.24 19.73 150.24 C19.8 151.29 19.86 152.34 19.92 153.43 C19.92 157.1 19.1 159.34 16.73 162.24 C15.74 162.24 14.75 162.24 13.73 162.24 C13.73 162.9 13.73 163.56 13.73 164.24 C13.07 164.24 12.41 164.24 11.73 164.24 C11.73 165.56 11.73 166.88 11.73 168.24 C11.07 168.24 10.41 168.24 9.73 168.24 C9.73 168.9 9.73 169.56 9.73 170.24 C8.41 170.57 7.09 170.9 5.73 171.24 C5.4 172.56 5.07 173.88 4.73 175.24 C4.73 174.25 4.73 173.26 4.73 172.24 C4.07 172.24 3.41 172.24 2.73 172.24 C0.37 176.01 0.13 179.9 -0.27 184.24 C-0.93 184.24 -1.59 184.24 -2.27 184.24 C-2.27 184.9 -2.27 185.56 -2.27 186.24 C-2.93 186.24 -3.59 186.24 -4.27 186.24 C-4.93 187.56 -5.59 188.88 -6.27 190.24 C-7.59 190.24 -8.91 190.24 -10.27 190.24 C-10.27 190.9 -10.27 191.56 -10.27 192.24 C-10.93 192.24 -11.59 192.24 -12.27 192.24 C-12.27 193.56 -12.27 194.88 -12.27 196.24 C-13.59 196.24 -14.91 196.24 -16.27 196.24 C-16.27 196.9 -16.27 197.56 -16.27 198.24 C-24.85 198.24 -33.43 198.24 -42.27 198.24 C-42.6 197.58 -42.6 197.58 -44.27 194.24 C-45.26 194.4 -46.25 194.57 -47.27 194.74 C-51.09 194.75 -52.72 193.32 -55.39 190.68 C-56.71 189.22 -58 187.74 -59.27 186.24 C-59.8 185.63 -60.33 185.02 -60.88 184.39 C-64.22 180.25 -64.8 177.52 -64.27 172.24 C-64.93 172.24 -65.59 172.24 -66.27 172.24 C-66.18 171.39 -66.1 170.55 -66.02 169.68 C-66.32 165.45 -67.73 162.6 -70.27 159.24 C-70.93 158.91 -71.59 158.58 -72.27 158.24 C-72.58 155.69 -72.78 153.23 -72.89 150.68 C-72.91 150.32 -72.91 150.32 -73.01 148.52 C-73.1 146.76 -73.19 145 -73.27 143.24 C-74.26 143.24 -75.25 143.24 -76.27 143.24 C-79.14 133.41 -78.49 123.25 -78.39 113.11 C-78.38 111.28 -78.37 109.45 -78.36 107.61 C-78.34 103.15 -78.31 98.7 -78.27 94.24 C-77.61 94.24 -76.95 94.24 -76.27 94.24 C-76.27 89.95 -76.27 85.66 -76.27 81.24 C-75.61 81.24 -74.95 81.24 -74.27 81.24 C-74.27 78.6 -74.27 75.96 -74.27 73.24 C-73.61 73.24 -72.95 73.24 -72.27 73.24 C-72.28 72.41 -72.29 71.58 -72.3 70.72 C-72.31 70.18 -72.31 70.18 -72.33 67.43 C-72.34 66.35 -72.35 65.27 -72.36 64.16 C-72.27 61.24 -72.27 61.24 -71.27 58.24 C-70.28 58.24 -69.29 58.24 -68.27 58.24 C-68.27 57.58 -68.27 56.92 -68.27 56.24 C-67.61 56.24 -66.95 56.24 -66.27 56.24 C-66.37 55.68 -66.47 55.12 -66.58 54.55 C-66.18 51.59 -64.77 50.63 -62.65 48.65 C-60.23 46.19 -58.39 43.51 -57.27 40.24 C-57.51 39.17 -57.76 38.09 -58.02 36.99 C-58.62 34.19 -58.28 33.27 -56.92 30.67 C-46.08 15.2 -30.21 4.41 -11.61 0.71 C-7.72 0.16 -3.93 0.04 0 0 Z " fill="#A6562E" transform="translate(176.265625,333.76171875)"/>
<path d="M0 0 C6.39 -0.6 10.04 1.21 15.44 4.5 C15.8 4.71 15.8 4.71 17.65 5.8 C19.44 6.85 21.23 7.92 23 9 C23 9.66 23 10.32 23 11 C23.59 11.12 24.18 11.24 24.8 11.36 C27.1 12.03 28.4 12.82 30.28 14.29 C30.58 14.53 30.58 14.53 32.08 15.71 C32.39 15.95 32.39 15.95 33.94 17.19 C34.55 17.66 35.15 18.13 35.78 18.61 C39.23 21.34 42.04 24.12 44.76 27.56 C46.05 29.06 47.41 30.21 48.97 31.43 C52.43 34.2 54.88 37.47 57.44 41.06 C57.91 41.72 58.38 42.37 58.87 43.05 C64.02 50.27 68.82 57.69 72 66 C72.4 66.95 72.8 67.9 73.22 68.88 C78.64 82.09 80.41 94.18 76 108 C76.66 108 77.32 108 78 108 C78.16 107.34 78.16 107.34 79 104 C79.33 104 79.66 104 80 104 C81.08 135.01 81.08 135.01 75 150 C74.68 150.78 74.37 151.56 74.04 152.37 C67.33 168.44 57.9 182.56 45.34 194.68 C44.36 195.65 43.41 196.65 42.48 197.66 C24.82 216.43 -5.09 235.26 -31.51 236.17 C-32.71 236.18 -33.92 236.19 -35.12 236.19 C-35.73 236.2 -36.34 236.21 -36.96 236.22 C-40.5 236.24 -42.99 235.89 -46 234 C-45.35 233.14 -44.69 232.28 -44.02 231.39 C-7.23 182.4 17.43 120.45 9.17 58.22 C8.58 54.45 7.81 50.73 7 47 C6.92 46.59 6.92 46.59 6.5 44.49 C4.23 33.27 1.09 22.81 -3.5 12.31 C-3.67 11.91 -3.67 11.91 -4.52 9.93 C-4.68 9.59 -4.68 9.59 -5.46 7.84 C-6 6 -6 6 -5 3 C-3.35 2.67 -1.7 2.34 0 2 C0 1.34 0 0.68 0 0 Z " fill="#5A2E18" transform="translate(560,164)"/>
<path d="M0 0 C2 1 2 1 3 3 C2.01 3 1.02 3 0 3 C0.33 4.32 0.66 5.64 1 7 C3.97 5.68 6.94 4.36 10 3 C10.17 3.33 10.17 3.33 11 5 C12.32 4.01 13.64 3.02 15 2 C15.12 2.97 15.25 3.94 15.38 4.94 C15.58 5.95 15.79 6.96 16 8 C16.66 8.33 17.32 8.66 18 9 C17.67 9.66 17.34 10.32 17 11 C17.99 11 18.98 11 20 11 C20 10.34 20 9.68 20 9 C20.99 9 21.98 9 23 9 C23.29 9.47 23.58 9.95 23.88 10.44 C25 12 25 12 27.62 12.69 C28.41 12.79 29.19 12.89 30 13 C29.83 12.34 29.83 12.34 29 9 C35.95 12.66 42.55 16.51 49 21 C48.34 21.66 47.68 22.32 47 23 C47 25.46 47.85 26.85 49 29 C50.98 29 52.96 29 55 29 C55.16 29.99 55.16 29.99 56 35 C56.99 34.01 57.98 33.02 59 32 C59.66 32.33 60.32 32.66 61 33 C61.16 32.67 61.16 32.67 62 31 C67.36 35.98 72.69 40.98 78 46 C78.55 46.52 79.1 47.03 79.66 47.56 C108.88 75.26 128.41 113.04 130.11 153.59 C130.71 180.14 125.94 203.13 114 227 C99.81 227 85.62 227 71 227 C71 225.35 71 223.7 71 222 C71.99 221.67 72.98 221.34 74 221 C74.66 220.34 75.32 219.68 76 219 C76 219.66 76 220.32 76 221 C76.99 221 77.98 221 79 221 C78.81 220.07 78.63 219.14 78.44 218.19 C78 215 78 215 79 212 C78.34 212 77.68 212 77 212 C76.97 210.35 76.95 208.71 76.94 207.06 C76.93 206.15 76.91 205.23 76.9 204.29 C77 202 77 202 78 201 C78.26 199.17 78.46 197.34 78.62 195.5 C78.72 194.5 78.82 193.5 78.91 192.47 C78.94 191.65 78.97 190.84 79 190 C78.67 189.67 78.34 189.34 78 189 C77.89 186.71 77.84 184.45 77.82 182.17 C77.8 180.72 77.78 179.28 77.76 177.84 C77.75 177.08 77.74 176.32 77.73 175.54 C77.49 161.67 76.8 148.42 73 135 C72.81 134.33 72.63 133.66 72.44 132.97 C69.82 123.81 66.08 115.2 61.83 106.68 C61.1 105.2 60.38 103.7 59.68 102.21 C54.75 92.42 47.67 82.25 39.62 74.79 C38 73 38 73 37.61 70.64 C37.66 69.85 37.7 69.06 37.75 68.25 C37.79 67.45 37.82 66.65 37.86 65.83 C37.91 65.22 37.95 64.62 38 64 C36.85 63.5 36.85 63.5 31 61 C31 60.34 31 59.68 31 59 C30.67 58.84 30.67 58.84 29 58 C28.67 57.34 28.34 56.68 28 56 C28 56.99 28 57.98 28 59 C28 59.99 28 60.98 28 62 C27.79 61.84 27.79 61.84 26.74 61.04 C21.49 57.06 16.14 53.23 10.75 49.43 C10.46 49.22 10.46 49.22 8.98 48.17 C8.45 47.8 7.93 47.43 7.39 47.05 C6 46 6 46 4 44 C4.66 44 5.32 44 6 44 C6.33 42.02 6.66 40.04 7 38 C3.7 37.67 0.4 37.34 -3 37 C-3 36.34 -3 35.68 -3 35 C-3.66 35 -4.32 35 -5 35 C-5 34.34 -5 33.68 -5 33 C-6.32 33 -7.64 33 -9 33 C-8.67 33.99 -8.34 34.98 -8 36 C-8.33 36.16 -8.33 36.16 -10 37 C-12.38 36.14 -14.64 35.22 -16.94 34.19 C-17.57 33.91 -18.2 33.64 -18.86 33.36 C-21.75 32.09 -24.4 30.81 -27 29 C-26.34 28.34 -25.68 27.68 -25 27 C-24.92 26.38 -24.83 25.76 -24.75 25.12 C-23.85 22.59 -23.26 22.42 -21 21.12 C-18.16 19.43 -18.06 19.22 -17.12 15.75 C-17.08 14.84 -17.04 13.94 -17 13 C-14.36 13 -11.72 13 -9 13 C-9.04 12.24 -9.08 11.47 -9.12 10.69 C-8.95 6.85 -8.95 6.85 -7 5 C-4.88 4.81 -4.88 4.81 -3 5 C-2.69 4.36 -2.38 3.72 -2.06 3.06 C-1 1 -1 1 0 0 Z " fill="#ECBC96" transform="translate(297,163)"/>
<path d="M0 0 C0.55 0.98 1.1 1.96 1.66 2.96 C1.98 3.51 2.29 4.05 2.61 4.6 C26.63 47.42 26.09 99.17 13.39 145.43 C3.68 179.28 3.68 179.28 -4.34 188.96 C-5.66 188.63 -6.98 188.3 -8.34 187.96 C-8.67 188.95 -9 189.94 -9.34 190.96 C-10.66 190.63 -11.98 190.3 -13.34 189.96 C-12.92 190.85 -12.51 191.74 -12.09 192.65 C-11.84 193.75 -11.59 194.84 -11.34 195.96 C-13.21 198.71 -13.21 198.71 -15.34 200.96 C-15.34 201.62 -15.34 202.28 -15.34 202.96 C-16.12 209.59 -17 213.75 -22.34 217.96 C-22.67 217.63 -22.67 217.63 -24.34 215.96 C-26.27 216.65 -26.27 216.65 -28.34 217.96 C-29.09 220.59 -29.09 220.59 -29.34 222.96 C-31.32 223.29 -33.3 223.62 -35.34 223.96 C-35.38 224.51 -35.42 225.05 -35.46 225.61 C-35.81 228 -36.22 229.81 -37.34 231.96 C-40.18 233.68 -43.1 234.34 -46.34 234.96 C-46.65 235.03 -46.65 235.03 -48.26 235.36 C-49.61 235.6 -50.97 235.79 -52.34 235.96 C-52.67 236.95 -53 237.94 -53.34 238.96 C-56.64 238.96 -59.94 238.96 -63.34 238.96 C-63.34 239.62 -63.34 240.28 -63.34 240.96 C-65.32 240.96 -67.3 240.96 -69.34 240.96 C-70.21 238.28 -70.21 238.28 -70.34 234.96 C-68.65 232.84 -66.69 231.31 -64.34 229.96 C-63.68 229.96 -63.02 229.96 -62.34 229.96 C-62.17 229.3 -62.17 229.3 -61.34 225.96 C-62.66 226.29 -63.98 226.62 -65.34 226.96 C-63.91 225.3 -62.49 223.65 -61.06 221.99 C-59.92 220.65 -58.79 219.3 -57.67 217.94 C-57.15 217.31 -56.63 216.68 -56.09 216.03 C-55.85 215.73 -55.85 215.73 -54.63 214.25 C-53.34 212.96 -53.34 212.96 -51.34 212.96 C-51.34 213.62 -51.34 214.28 -51.34 214.96 C-50.51 214.63 -50.51 214.63 -46.34 212.96 C-46.34 211.31 -46.34 209.66 -46.34 207.96 C-45.86 207.82 -45.86 207.82 -43.46 207.09 C-40.34 205.96 -40.34 205.96 -38.34 203.96 C-39 203.3 -39.66 202.64 -40.34 201.96 C-40.01 201.3 -39.68 200.64 -39.34 199.96 C-38.68 199.96 -38.02 199.96 -37.34 199.96 C-36.43 196.67 -35.74 194.15 -37.34 190.96 C-36.41 189.02 -36.41 189.02 -35.02 186.84 C-34.8 186.48 -34.8 186.48 -33.66 184.64 C-33.44 184.37 -33.44 184.37 -32.34 182.96 C-31.68 182.96 -31.02 182.96 -30.34 182.96 C-30.34 183.95 -30.34 184.94 -30.34 185.96 C-27.37 183.98 -24.4 182 -21.34 179.96 C-21.52 178.42 -21.71 176.87 -21.9 175.28 C-22.28 171.54 -22.15 168.64 -21.34 164.96 C-21.43 164.5 -21.43 164.5 -21.9 162.16 C-22.38 158.67 -21.98 156.87 -20.82 153.57 C-20.48 152.54 -20.14 151.52 -19.78 150.46 C-19.41 149.37 -19.03 148.28 -18.65 147.15 C-14.4 134.27 -11.98 121.45 -10.34 107.96 C-10.23 107.16 -10.13 106.36 -10.03 105.53 C-6.68 76.28 -9.96 46.1 -20.71 18.65 C-23.44 11.55 -22.86 6.04 -20.34 -1.04 C-17.42 -1.35 -14.51 -1.6 -11.59 -1.85 C-10.76 -1.94 -9.94 -2.03 -9.09 -2.12 C-2.97 -2.59 -2.97 -2.59 0 0 Z " fill="#ECC19E" transform="translate(549.3359375,161.03515625)"/>
<path d="M0 0 C0.79 -0.01 1.58 -0.03 2.39 -0.04 C41.75 -0.54 76.61 7.36 106.31 34.61 C109.42 37.67 112.2 40.75 114.76 44.27 C114.43 44.93 114.1 45.59 113.76 46.27 C113.43 45.94 113.1 45.61 112.76 45.27 C112.76 48.9 112.76 52.53 112.76 56.27 C115.07 56.6 117.38 56.93 119.76 57.27 C119.9 57.7 119.9 57.7 120.57 59.84 C121.39 62.26 122.25 64.65 123.2 67.02 C123.31 67.31 123.31 67.31 123.88 68.76 C124.92 70.54 126.06 71.16 127.76 72.27 C127.95 74.4 127.95 74.4 127.76 76.27 C129.08 76.6 130.4 76.93 131.76 77.27 C131.43 78.59 131.1 79.91 130.76 81.27 C129.77 80.61 128.78 79.95 127.76 79.27 C127.93 79.79 128.09 80.3 128.26 80.84 C129.14 85.12 129.16 89.09 127.76 93.27 C129.08 93.27 130.4 93.27 131.76 93.27 C131.76 93.93 131.76 94.59 131.76 95.27 C130.77 95.27 129.78 95.27 128.76 95.27 C128.76 95.93 128.76 96.59 128.76 97.27 C130.08 97.6 131.4 97.93 132.76 98.27 C129.68 98.78 126.6 99.28 123.51 99.77 C122.64 99.92 121.77 100.06 120.87 100.21 C120.02 100.34 119.18 100.48 118.31 100.62 C117.92 100.68 117.92 100.68 115.96 101 C113.87 101.26 111.87 101.32 109.76 101.27 C109.93 100.49 110.09 99.71 110.26 98.9 C111.11 93.78 111.48 88.08 110.19 83.03 C110.05 82.45 109.91 81.87 109.76 81.27 C110.09 80.94 110.42 80.61 110.76 80.27 C110.86 78.64 110.86 78.64 110.82 76.71 C110.81 76.14 110.81 76.14 110.76 73.27 C110.43 73.44 110.43 73.44 108.76 74.27 C102.98 73.38 100.48 71.43 96.83 66.93 C95.76 65.27 95.76 65.27 95.76 63.27 C95.17 63.01 94.58 62.74 93.98 62.47 C91.7 61.24 90.18 59.93 88.32 58.15 C73.84 45.27 53.72 36.69 34.76 33.27 C35.75 32.94 36.74 32.61 37.76 32.27 C37.76 31.61 37.76 30.95 37.76 30.27 C-1.86 29.69 -1.86 29.69 -16.24 34.27 C-17.23 34.55 -18.23 34.83 -19.25 35.11 C-31.05 38.63 -40.47 44.74 -49.24 53.27 C-52.47 48.96 -52.38 44.55 -52.34 39.32 C-52.33 38.66 -52.33 38 -52.33 37.32 C-52.33 35.22 -52.31 33.12 -52.3 31.02 C-52.3 29.6 -52.29 28.17 -52.29 26.74 C-52.28 23.25 -52.26 19.76 -52.24 16.27 C-36.17 6.8 -18.84 0.27 0 0 Z " fill="#EEC19B" transform="translate(176.23828125,302.7265625)"/>
<path d="M0 0 C2.31 0 4.62 0 7 0 C5.46 3.96 2.76 6.24 -0.44 8.88 C-1 9.35 -1.57 9.82 -2.15 10.3 C-13.09 19.29 -24.62 27.58 -36.44 35.38 C-37.14 35.85 -37.84 36.32 -38.57 36.8 C-38.9 37.01 -38.9 37.01 -40.56 38.09 C-40.84 38.27 -40.84 38.27 -42.29 39.21 C-44.31 40.14 -45.8 40.15 -48 40 C-48 39.34 -48 38.68 -48 38 C-49.32 38 -50.64 38 -52 38 C-52 37.34 -52 36.68 -52 36 C-50.68 36 -49.36 36 -48 36 C-48 34.35 -48 32.7 -48 31 C-46.35 30.67 -44.7 30.34 -43 30 C-43 30.66 -43 31.32 -43 32 C-42.01 32 -41.02 32 -40 32 C-40 31.34 -40 30.68 -40 30 C-38.02 30 -36.04 30 -34 30 C-34 29.34 -34 28.68 -34 28 C-33.34 28 -32.68 28 -32 28 C-32 26.68 -32 25.36 -32 24 C-29.36 24 -26.72 24 -24 24 C-23.86 23.22 -23.71 22.43 -23.56 21.62 C-23 19 -23 19 -22 17 C-22.66 16.67 -23.32 16.34 -24 16 C-21.36 16 -18.72 16 -16 16 C-16 14.02 -16 12.04 -16 10 C-14.12 9.38 -14.12 9.38 -12 9 C-11.34 9.66 -10.68 10.32 -10 11 C-10 10.01 -10 9.02 -10 8 C-9.34 8 -8.68 8 -8 8 C-8 7.34 -8 6.68 -8 6 C-7.34 6 -6.68 6 -6 6 C-6 6.66 -6 7.32 -6 8 C-4.68 8 -3.36 8 -2 8 C-2 6.68 -2 5.36 -2 4 C-1.34 4 -0.68 4 0 4 C0 2.68 0 1.36 0 0 Z " fill="#E4B895" transform="translate(568,600)"/>
<path d="M0 0 C4.62 1.65 9.24 3.3 14 5 C14 6.32 14 7.64 14 9 C13.01 8.67 12.02 8.34 11 8 C8.74 8.56 8.74 8.56 6.31 9.44 C5.5 9.72 4.7 10.01 3.86 10.31 C3.25 10.54 2.63 10.76 2 11 C1.45 8.92 1 7.16 1 5 C0.79 5.33 0.79 5.33 -0.25 7 C-0.54 7.33 -0.54 7.33 -2 9 C-3.32 9 -4.64 9 -6 9 C-6.66 11.64 -7.32 14.28 -8 17 C-10.64 17 -13.28 17 -16 17 C-15.67 17.99 -15.34 18.98 -15 20 C-15.62 22.56 -15.62 22.56 -17 25 C-17.41 25.15 -17.41 25.15 -19.5 25.94 C-22 27 -22 27 -23.31 30.12 C-23.54 31.07 -23.77 32.02 -24 33 C-25.32 32.84 -25.32 32.84 -32 32 C-30.54 26.73 -27.17 23.93 -23.25 20.38 C-22.92 20.07 -22.92 20.07 -21.25 18.53 C-16.14 13.88 -10.82 9.54 -5.31 5.38 C-1.09 2.19 -1.09 2.19 0 0 Z " fill="#EBC9A8" transform="translate(296,159)"/>
<path d="M0 0 C-0.22 1.83 -0.22 1.83 -1 4 C-2.95 5.41 -2.95 5.41 -5.54 6.7 C-6.02 6.94 -6.02 6.94 -8.46 8.16 C-9.51 8.67 -10.57 9.18 -11.62 9.69 C-12.7 10.22 -13.78 10.74 -14.86 11.27 C-42.64 24.74 -42.64 24.74 -54 26 C-54 25.34 -54 24.68 -54 24 C-52.68 24 -51.36 24 -50 24 C-50 23.34 -50 22.68 -50 22 C-49.34 22 -48.68 22 -48 22 C-48 21.34 -48 20.68 -48 20 C-47.34 19.67 -46.68 19.34 -46 19 C-46 18.01 -46 17.02 -46 16 C-43.69 16 -41.38 16 -39 16 C-38.67 15.34 -38.34 14.68 -38 14 C-35.36 14 -32.72 14 -30 14 C-30 13.34 -30 12.68 -30 12 C-29.34 12 -28.68 12 -28 12 C-27.67 11.01 -27.34 10.02 -27 9 C-26.18 9.16 -26.18 9.16 -22 10 C-21.34 8.68 -20.68 7.36 -20 6 C-20 6.66 -20 7.32 -20 8 C-18.02 8 -16.04 8 -14 8 C-14 6.02 -14 4.04 -14 2 C-9.35 -0.4 -5.09 -0.2 0 0 Z " fill="#E5BB98" transform="translate(518,640)"/>
<path d="M0 0 C1.47 2.05 2.18 3.53 3 6 C2.04 7.87 2.04 7.87 0.54 9.94 C0.01 10.69 -0.53 11.44 -1.08 12.21 C-1.37 12.6 -1.37 12.6 -2.81 14.56 C-3.09 14.95 -3.09 14.95 -4.51 16.93 C-10.42 25.12 -10.42 25.12 -16.27 26.07 C-17.32 26.24 -18.38 26.42 -19.46 26.6 C-20.02 26.68 -20.02 26.68 -22.81 27.12 C-23.91 27.31 -25 27.49 -26.13 27.68 C-30.8 28.43 -35.25 29.11 -40 29 C-39.67 28.01 -39.34 27.02 -39 26 C-35.7 26 -32.4 26 -29 26 C-28.67 24.68 -28.34 23.36 -28 22 C-26.06 21.5 -24.13 21 -22.19 20.5 C-21.11 20.22 -20.03 19.94 -18.92 19.66 C-16 19 -16 19 -13 19 C-12.67 16.03 -12.34 13.06 -12 10 C-9.69 10 -7.38 10 -5 10 C-5 7.69 -5 5.38 -5 3 C-4.36 2.88 -3.72 2.75 -3.06 2.62 C-2.38 2.42 -1.7 2.21 -1 2 C-0.67 1.34 -0.34 0.68 0 0 Z " fill="#E2B693" transform="translate(525,374)"/>
<path d="M0 0 C1 2 1 2 0.21 4.82 C-0.25 6.07 -0.71 7.32 -1.19 8.56 C-1.45 9.24 -1.7 9.93 -1.97 10.63 C-4.71 17.63 -7.93 24.41 -11.19 31.19 C-11.45 31.74 -11.71 32.28 -11.99 32.85 C-17.58 44.45 -17.58 44.45 -20 48 C-20.5 48.16 -20.5 48.16 -23 49 C-23.33 46.36 -23.66 43.72 -24 41 C-23.67 40.84 -23.67 40.84 -22 40 C-21.34 40.33 -20.68 40.66 -20 41 C-19.92 40.34 -19.84 39.68 -19.75 39 C-18.9 35.61 -17.51 32.92 -15.84 29.87 C-15 28 -15 28 -15 25 C-14.01 25 -13.02 25 -12 25 C-12.33 23.35 -12.66 21.7 -13 20 C-13.99 20.33 -14.98 20.66 -16 21 C-16 19.68 -16 18.36 -16 17 C-13.36 17 -10.72 17 -8 17 C-8.02 16.05 -8.04 15.1 -8.06 14.12 C-8 11 -8 11 -7 9 C-6.78 7.63 -6.59 6.25 -6.44 4.88 C-6.35 4.15 -6.27 3.43 -6.18 2.68 C-6.15 2.4 -6.15 2.4 -6 1 C-4.02 0.67 -2.04 0.34 0 0 Z " fill="#E4BB99" transform="translate(656,479)"/>
<path d="M0 0 C0.66 0.33 1.32 0.66 2 1 C1.31 3.38 1.31 3.38 0 6 C-1.65 6.7 -3.32 7.37 -5 8 C-6.88 10.69 -7.23 12.76 -7 16 C-5.35 16 -3.7 16 -2 16 C-4.46 18.46 -5.61 18.42 -9.02 18.85 C-9.52 18.92 -9.52 18.92 -12.06 19.24 C-13.11 19.37 -14.16 19.49 -15.25 19.62 C-16.29 19.76 -17.33 19.89 -18.39 20.03 C-23.29 20.64 -28.06 21.19 -33 21 C-30.14 18.73 -27.25 17.03 -24 15.38 C-19.03 12.72 -14.64 9.66 -10.24 6.16 C-6.95 3.58 -3.83 1.62 0 0 Z " fill="#E3B592" transform="translate(487,386)"/>
<path d="M0 0 C0.33 0.99 0.66 1.98 1 3 C1.66 3.33 2.32 3.66 3 4 C2.86 5.75 2.71 7.5 2.56 9.25 C2.48 10.22 2.4 11.2 2.32 12.2 C2.05 14.58 1.61 16.7 1 19 C0.79 20.25 0.61 21.5 0.44 22.75 C0.29 23.82 0.15 24.89 0 26 C0.66 26 1.32 26 2 26 C2 28.97 2 31.94 2 35 C1.01 35 0.02 35 -1 35 C-1.66 35.66 -2.32 36.32 -3 37 C-3 36.34 -3 35.68 -3 35 C-3.33 35.17 -3.33 35.17 -5 36 C-5.41 37.63 -5.41 37.63 -5.62 39.56 C-5.75 40.7 -5.87 41.83 -6 43 C-7.32 43 -8.64 43 -10 43 C-10 42.34 -10 41.68 -10 41 C-11.32 40.67 -12.64 40.34 -14 40 C-13.81 39.79 -13.81 39.79 -12.86 38.71 C-3.58 27.37 -1.8 14.09 0 0 Z " fill="#EBB18B" transform="translate(374,349)"/>
<path d="M0 0 C0.33 0 0.66 0 1 0 C1.33 2.64 1.66 5.28 2 8 C1.67 8.16 1.67 8.16 0 9 C-0.85 10.63 -0.85 10.63 -1.62 12.56 C-1.89 13.2 -2.15 13.84 -2.41 14.5 C-2.61 15 -2.8 15.49 -3 16 C-3.66 16 -4.32 16 -5 16 C-4.98 16.95 -4.96 17.9 -4.94 18.88 C-5 22 -5 22 -6 24 C-6.1 26.38 -6.14 28.74 -6.13 31.12 C-6.13 31.83 -6.13 32.53 -6.14 33.25 C-6.14 34.74 -6.13 36.23 -6.13 37.71 C-6.13 39.99 -6.13 42.27 -6.14 44.55 C-6.14 45.99 -6.13 47.43 -6.13 48.88 C-6.13 49.56 -6.14 50.24 -6.14 50.95 C-6.11 55.77 -6.11 55.77 -5 58 C-4.93 60.39 -4.91 62.74 -4.94 65.12 C-4.94 65.78 -4.95 66.44 -4.95 67.12 C-4.96 68.75 -4.98 70.37 -5 72 C-4.34 72 -3.68 72 -3 72 C-3 73.98 -3 75.96 -3 78 C-5.07 75.93 -5.37 75.26 -6.04 72.55 C-6.2 71.87 -6.37 71.18 -6.55 70.48 C-6.63 70.12 -6.63 70.12 -7.06 68.31 C-7.24 67.62 -7.41 66.92 -7.59 66.21 C-12.96 44.16 -10.66 20.19 0 0 Z " fill="#E7CCB1" transform="translate(219,528)"/>
<path d="M0 0 C2.35 0.38 3.66 0.63 5.29 2.41 C5.66 3 6.03 3.6 6.4 4.21 C6.82 4.87 7.23 5.54 7.65 6.22 C8.08 6.93 8.5 7.64 8.94 8.38 C9.38 9.1 9.82 9.82 10.27 10.56 C14.52 17.65 18.58 24.77 20 33 C19.01 33 18.02 33 17 33 C16.01 31.02 15.02 29.04 14 27 C13.34 27 12.68 27 12 27 C9.96 22.48 8.99 17.84 8 13 C7.43 13.01 7.43 13.01 4.56 13.06 C2.63 13.1 2.63 13.1 1 13 C0 12 0 12 -0.1 9.28 C-0.09 8.18 -0.07 7.07 -0.06 5.94 C-0.05 4.83 -0.04 3.73 -0.04 2.59 C-0.02 1.74 -0.01 0.88 0 0 Z " fill="#EBB18A" transform="translate(288,347)"/>
<path d="M0 0 C10.47 -0.33 20.62 0.68 31 2 C31 2.66 31 3.32 31 4 C25.06 4.33 19.12 4.66 13 5 C11.88 11.75 11.88 11.75 11.94 15.38 C11.94 15.72 11.94 15.72 11.96 17.46 C11.98 17.97 11.99 18.48 12 19 C8.91 16.28 6.98 12.99 4.88 9.5 C4.7 9.21 4.7 9.21 3.79 7.74 C2.22 5.18 0.95 2.86 0 0 Z " fill="#ECCFB4" transform="translate(516,156)"/>
<path d="M0 0 C13.04 -0.35 26.61 1.26 39.07 5.16 C39.07 5.82 39.07 6.48 39.07 7.16 C40.06 7.49 41.05 7.82 42.07 8.16 C39.58 9.41 38.66 8.94 36.07 8.16 C36.07 7.5 36.07 6.84 36.07 6.16 C35.65 6.17 35.65 6.17 33.52 6.2 C32.42 6.2 31.33 6.21 30.2 6.22 C29.65 6.23 29.65 6.23 26.89 6.26 C24.07 6.16 24.07 6.16 22.07 5.16 C20.12 4.87 18.16 4.63 16.19 4.41 C15.62 4.34 15.04 4.28 14.45 4.21 C12.62 4 10.78 3.8 8.95 3.6 C7.71 3.46 6.46 3.32 5.22 3.18 C2.17 2.83 -0.88 2.5 -3.93 2.16 C-3.93 2.82 -3.93 3.48 -3.93 4.16 C-9.21 4.16 -14.49 4.16 -19.93 4.16 C-19.93 4.82 -19.93 5.48 -19.93 6.16 C-21.91 6.16 -23.89 6.16 -25.93 6.16 C-25.6 5.5 -25.27 4.84 -24.93 4.16 C-16.81 1.64 -8.46 0.46 0 0 Z " fill="#925C3A" transform="translate(227.92578125,185.83984375)"/>
<path d="M0 0 C0.33 0.99 0.66 1.98 1 3 C0.34 3 -0.32 3 -1 3 C-1.08 3.76 -1.16 4.53 -1.25 5.31 C-2 8 -2 8 -3.94 9.44 C-6.73 11.56 -7.08 13.68 -8 17 C-8.33 17.66 -8.66 18.32 -9 19 C-8.34 19 -7.68 19 -7 19 C-7.51 21.17 -8 23 -9 25 C-9.66 25 -10.32 25 -11 25 C-11 25.66 -11 26.32 -11 27 C-13.21 28.89 -13.96 29 -17 29 C-17 30.32 -17 31.64 -17 33 C-17.66 33 -18.32 33 -19 33 C-19 33.66 -19 34.32 -19 35 C-19.66 35 -20.32 35 -21 35 C-21.25 35.78 -21.5 36.57 -21.75 37.38 C-23.28 42 -25.16 46.49 -27 51 C-27.66 51 -28.32 51 -29 51 C-26.92 43.92 -23.98 37.52 -20.56 31 C-20.04 30 -19.52 29.01 -18.98 27.98 C-13.78 18.23 -7.88 7.88 0 0 Z " fill="#8C5838" transform="translate(135,237)"/>
<path d="M0 0 C1.98 0 3.96 0 6 0 C6 1.32 6 2.64 6 4 C7.32 4 8.64 4 10 4 C10.33 5.32 10.66 6.64 11 8 C11.93 7.96 12.86 7.92 13.81 7.88 C18.04 8.04 18.04 8.04 20 10 C20 10.66 20 11.32 20 12 C20.66 12 21.32 12 22 12 C22 12.66 22 13.32 22 14 C25.3 14 28.6 14 32 14 C32 14.66 32 15.32 32 16 C33.32 16 34.64 16 36 16 C36 16.99 36 17.98 36 19 C37.98 19.33 39.96 19.66 42 20 C42 20.66 42 21.32 42 22 C43.65 22 45.3 22 47 22 C47.17 22.66 47.17 22.66 48 26 C30.46 21.77 13.54 12.9 0 1 C0 0.67 0 0.34 0 0 Z " fill="#E7CDB1" transform="translate(240,640)"/>
<path d="M0 0 C1.32 0 2.64 0 4 0 C4 0.66 4 1.32 4 2 C4.66 2 5.32 2 6 2 C6 1.34 6 0.68 6 0 C6.99 0.33 7.98 0.66 9 1 C7.48 4.61 5.19 7.07 2.43 9.77 C1.99 10.2 1.55 10.64 1.09 11.09 C-0.31 12.48 -1.72 13.87 -3.12 15.25 C-4.08 16.19 -5.03 17.14 -5.99 18.09 C-8.32 20.4 -10.66 22.7 -13 25 C-13.66 24.67 -14.32 24.34 -15 24 C-14.67 21.36 -14.34 18.72 -14 16 C-12.02 16 -10.04 16 -8 16 C-8 14.68 -8 13.36 -8 12 C-7.34 12 -6.68 12 -6 12 C-6 10.68 -6 9.36 -6 8 C-4.68 8 -3.36 8 -2 8 C-1.86 7.42 -1.71 6.85 -1.56 6.25 C-1.04 4.17 -0.52 2.08 0 0 Z " fill="#E5B895" transform="translate(590,576)"/>
<path d="M0 0 C0 0.66 0 1.32 0 2 C-0.66 2 -1.32 2 -2 2 C-2 2.66 -2 3.32 -2 4 C-2.59 4.17 -3.18 4.34 -3.79 4.52 C-8.74 6.03 -12.18 7.52 -16 11 C-16.99 11.68 -17.98 12.36 -19 13 C-18.67 14.32 -18.34 15.64 -18 17 C-23.61 17 -29.22 17 -35 17 C-31.95 13.95 -30.34 12.41 -26.77 10.53 C-25.97 10.1 -25.16 9.68 -24.33 9.24 C-23.5 8.81 -22.67 8.38 -21.81 7.94 C-21 7.5 -20.19 7.07 -19.35 6.62 C-6.68 0 -6.68 0 0 0 Z " fill="#8E5B3A" transform="translate(202,191)"/>
<path d="M0 0 C0 3.87 -1.71 5.65 -4 8.56 C-4.2 8.83 -4.2 8.83 -5.23 10.16 C-6.48 11.78 -7.74 13.39 -9 15 C-9.76 15.98 -10.52 16.96 -11.27 17.94 C-17.05 25.32 -17.05 25.32 -20 27 C-19.67 25.35 -19.34 23.7 -19 22 C-19.99 21.67 -20.98 21.34 -22 21 C-22 19.68 -22 18.36 -22 17 C-21.01 16.67 -20.02 16.34 -19 16 C-18.34 16.66 -17.68 17.32 -17 18 C-16.01 17.67 -15.02 17.34 -14 17 C-14 15.02 -14 13.04 -14 11 C-13.34 10.67 -12.68 10.34 -12 10 C-12 8.35 -12 6.7 -12 5 C-10.02 5 -8.04 5 -6 5 C-6 4.34 -6 3.68 -6 3 C-5.34 3 -4.68 3 -4 3 C-4 2.34 -4 1.68 -4 1 C-2.68 0.67 -1.36 0.34 0 0 Z " fill="#E4BB9A" transform="translate(620,549)"/>
<path d="M0 0 C0.66 0 1.32 0 2 0 C-2.67 13.04 -12.91 25.89 -24 34 C-24.66 34 -25.32 34 -26 34 C-26 32.68 -26 31.36 -26 30 C-25.34 30 -24.68 30 -24 30 C-24 29.34 -24 28.68 -24 28 C-23.6 27.86 -23.6 27.86 -21.56 27.12 C-19 26 -19 26 -18 24 C-17.34 24 -16.68 24 -16 24 C-16 23.34 -16 22.68 -16 22 C-15.34 22 -14.68 22 -14 22 C-14.02 21.48 -14.05 20.96 -14.07 20.43 C-14.18 16.12 -13.97 12.94 -12 9 C-11.01 9 -10.02 9 -9 9 C-8.01 8.67 -7.02 8.34 -6 8 C-5.34 8 -4.68 8 -4 8 C-4 7.34 -4 6.68 -4 6 C-3.34 6 -2.68 6 -2 6 C-2 4.68 -2 3.36 -2 2 C-1.34 2 -0.68 2 0 2 C0 1.34 0 0.68 0 0 Z " fill="#A25F3B" transform="translate(190,496)"/>
<path d="M0 0 C0 0.99 0 1.98 0 3 C-1.71 4.32 -1.71 4.32 -3.94 5.56 C-7.9 7.81 -7.9 7.81 -9 10 C-9.66 10 -10.32 10 -11 10 C-11 11.32 -11 12.64 -11 14 C-11.99 14 -12.98 14 -14 14 C-15.01 15.33 -16.01 16.66 -17 18 C-18.63 19.06 -20.3 20.05 -22 21 C-23 21.68 -24 22.37 -25 23.06 C-27.55 24.79 -30.14 25.86 -33 27 C-33.33 27.66 -33.66 28.32 -34 29 C-38.5 32 -38.5 32 -41 32 C-41.66 33.32 -42.32 34.64 -43 36 C-43.99 35.67 -44.98 35.34 -46 35 C-45.67 34.01 -45.34 33.02 -45 32 C-44.01 32 -43.02 32 -42 32 C-42 31.34 -42 30.68 -42 30 C-37.62 27 -37.62 27 -35 27 C-35 26.34 -35 25.68 -35 25 C-33.32 23.8 -31.58 22.69 -29.81 21.62 C-26.82 19.81 -23.95 18.01 -21.26 15.77 C-19 14 -19 14 -17 14 C-17 13.34 -17 12.68 -17 12 C-15.32 10.49 -15.32 10.49 -13.12 8.88 C-12.41 8.34 -11.69 7.8 -10.95 7.24 C-9 6 -9 6 -7 6 C-7 5.34 -7 4.68 -7 4 C-5.85 3.34 -5.85 3.34 0 0 Z " fill="#E8B991" transform="translate(519,586)"/>
<path d="M0 0 C0.99 0.33 1.98 0.66 3 1 C1.55 6.2 -0.83 10.27 -3.81 14.75 C-4.03 15.09 -4.03 15.09 -5.1 16.79 C-7.62 20.59 -9.37 22.84 -14 24 C-15.76 21.68 -16 21.09 -16 18 C-14.85 17.84 -14.85 17.84 -9 17 C-8.67 12.05 -8.34 7.1 -8 2 C-6.02 2 -4.04 2 -2 2 C-2 2.66 -2 3.32 -2 4 C-1.34 4 -0.68 4 0 4 C0 2.68 0 1.36 0 0 Z " fill="#E5BA98" transform="translate(632,526)"/>
<path d="M0 0 C1.32 0 2.64 0 4 0 C4 5.28 4 10.56 4 16 C4.66 16 5.32 16 6 16 C6 16.66 6 17.32 6 18 C7.32 18 8.64 18 10 18 C10 18.66 10 19.32 10 20 C8.68 20 7.36 20 6 20 C6 20.66 6 21.32 6 22 C3.36 22 0.72 22 -2 22 C-2.03 19.37 -2.05 16.75 -2.06 14.12 C-2.07 13.38 -2.08 12.63 -2.09 11.86 C-2.09 11.51 -2.09 11.51 -2.1 9.7 C-2.1 9.04 -2.11 8.38 -2.11 7.7 C-2 6 -2 6 -1 4 C-0.34 4 0.32 4 1 4 C0.67 2.68 0.34 1.36 0 0 Z " fill="#9E582E" transform="translate(102,304)"/>
<path d="M0 0 C0.99 0.99 1.98 1.98 3 3 C2.71 5.01 2.37 7.01 2 9 C2.18 12.03 2.59 14.99 3 18 C1.18 19.15 1.18 19.15 -8 25 C-7.67 23.68 -7.34 22.36 -7 21 C-7.66 20.67 -8.32 20.34 -9 20 C-6.03 13.4 -3.06 6.8 0 0 Z " fill="#E9B793" transform="translate(526,323)"/>
<path d="M0 0 C1.12 3.75 1.12 3.75 0 6 C-0.23 7.7 -0.41 9.41 -0.56 11.12 C-0.65 12.04 -0.73 12.95 -0.82 13.88 C-0.88 14.58 -0.94 15.28 -1 16 C-1.66 16 -2.32 16 -3 16 C-2.67 17.32 -2.34 18.64 -2 20 C-2.66 20 -3.32 20 -4 20 C-4.33 25.94 -4.66 31.88 -5 38 C-2.36 38 0.28 38 3 38 C3 37.34 3 36.68 3 36 C4.32 36 5.64 36 7 36 C7 35.34 7 34.68 7 34 C8.32 34 9.64 34 11 34 C11 33.34 11 32.68 11 32 C12.65 32 14.3 32 16 32 C11.94 36.72 4.85 39.6 -1.27 40.24 C-3.12 40.06 -3.12 40.06 -6 39 C-9.45 34.01 -8.02 27.66 -7 22 C-5.24 14.52 -2.98 7.09 0 0 Z " fill="#875B3B" transform="translate(105,288)"/>
<path d="M0 0 C0.33 0 0.66 0 1 0 C1.41 24.45 -0.34 47.96 -5 72 C-5.33 72 -5.66 72 -6 72 C-6 65.4 -6 58.8 -6 52 C-5.67 52 -5.34 52 -5 52 C-4.67 48.04 -4.34 44.08 -4 40 C-3.67 40 -3.34 40 -3 40 C-2.67 34.72 -2.34 29.44 -2 24 C-1.34 24 -0.68 24 0 24 C0 16.08 0 8.16 0 0 Z " fill="#E2C6AC" transform="translate(672,376)"/>
<path d="M0 0 C0.33 0 0.66 0 1 0 C1 2.97 1 5.94 1 9 C0.34 9 -0.32 9 -1 9 C-1 11.64 -1 14.28 -1 17 C-1.66 17 -2.32 17 -3 17 C-3 21.29 -3 25.58 -3 30 C-3.66 30 -4.32 30 -5 30 C-5 42.87 -5 55.74 -5 69 C-5.33 69 -5.66 69 -6 69 C-9.1 45.75 -6.77 22.39 0 0 Z " fill="#995C3C" transform="translate(103,398)"/>
<path d="M0 0 C0.33 0 0.66 0 1 0 C1 2.97 1 5.94 1 9 C2.32 8.67 3.64 8.34 5 8 C6.25 4.94 6.25 4.94 7 2 C7.66 2 8.32 2 9 2 C8.6 7.45 6.87 11.09 3 15 C-0.77 17.48 -4.76 19.47 -8.81 21.44 C-9.9 21.98 -10.98 22.53 -12.07 23.08 C-14.7 24.4 -17.35 25.71 -20 27 C-20.33 26.01 -20.66 25.02 -21 24 C-19.68 24 -18.36 24 -17 24 C-17 23.34 -17 22.68 -17 22 C-15.68 22 -14.36 22 -13 22 C-13 21.34 -13 20.68 -13 20 C-11.68 20 -10.36 20 -9 20 C-9 19.34 -9 18.68 -9 18 C-7.68 18 -6.36 18 -5 18 C-5 17.34 -5 16.68 -5 16 C-3.12 13.88 -3.12 13.88 -1 12 C-0.34 12 0.32 12 1 12 C0.34 11.42 -0.32 10.85 -1 10.25 C-3 8 -3 8 -3.25 5.75 C-3.17 5.17 -3.08 4.6 -3 4 C-2.34 4 -1.68 4 -1 4 C-0.67 2.68 -0.34 1.36 0 0 Z " fill="#A05F3B" transform="translate(277,400)"/>
<path d="M0 0 C4.55 4.15 7.75 8.78 11 14 C11.52 14.81 12.03 15.61 12.56 16.44 C13.04 17.22 13.51 18.01 14 18.81 C14.43 19.52 14.87 20.23 15.31 20.96 C16 23 16 23 15.12 25.26 C14.75 25.84 14.38 26.41 14 27 C13.87 26.52 13.87 26.52 13.19 24.06 C12.8 23.05 12.4 22.04 12 21 C11.01 20.67 10.02 20.34 9 20 C8.67 19.17 8.67 19.17 7 15 C4 14 4 14 1 15 C1.88 10.12 1.88 10.12 3 9 C2.01 9 1.02 9 0 9 C0 7.68 0 6.36 0 5 C-0.66 4.67 -1.32 4.34 -2 4 C-2 3.01 -2 2.02 -2 1 C-1.34 0.67 -0.68 0.34 0 0 Z " fill="#623921" transform="translate(512,153)"/>
<path d="M0 0 C0.99 0 1.98 0 3 0 C1.55 3.23 -0.27 5.63 -2.56 8.31 C-7.8 14.76 -11.87 21.82 -16 29 C-18.06 32.57 -18.06 32.57 -19.07 34.32 C-19.95 35.85 -20.82 37.37 -21.69 38.9 C-22.12 39.59 -22.55 40.29 -23 41 C-23.33 41 -23.66 41 -24 41 C-24 39.35 -24 37.7 -24 36 C-23.34 36 -22.68 36 -22 36 C-22 34.68 -22 33.36 -22 32 C-21.34 32 -20.68 32 -20 32 C-20 31.01 -20 30.02 -20 29 C-19.34 29 -18.68 29 -18 29 C-17.86 28.22 -17.71 27.43 -17.56 26.62 C-17 24 -17 24 -16 22 C-15.34 22 -14.68 22 -14 22 C-14 21.01 -14 20.02 -14 19 C-13.34 19 -12.68 19 -12 19 C-12 18.01 -12 17.02 -12 16 C-11.34 16 -10.68 16 -10 16 C-10.33 15.01 -10.66 14.02 -11 13 C-10.01 12.67 -9.02 12.34 -8 12 C-7.27 10.37 -7.27 10.37 -6.81 8.44 C-6.73 8.12 -6.73 8.12 -6.33 6.5 C-6.28 6.25 -6.28 6.25 -6 5 C-4.68 4.67 -3.36 4.34 -2 4 C-2 3.34 -2 2.68 -2 2 C-1.34 2 -0.68 2 0 2 C0 1.34 0 0.68 0 0 Z " fill="#9C5E3D" transform="translate(220,448)"/>
<path d="M0 0 C6.88 2.62 13.47 5.61 20 9 C19.36 9.47 18.72 9.95 18.06 10.44 C16 12 16 12 15 13 C13.33 13.04 11.67 13.04 10 13 C9.67 13.99 9.34 14.98 9 16 C0 2.63 0 2.63 0 0 Z " fill="#4E2D19" transform="translate(545,154)"/>
<path d="M0 0 C0.6 0.08 1.2 0.17 1.81 0.25 C1.81 0.91 1.81 1.57 1.81 2.25 C3.13 2.25 4.45 2.25 5.81 2.25 C5.81 1.59 5.81 0.93 5.81 0.25 C19.67 0.25 33.53 0.25 47.81 0.25 C47.15 1.24 46.49 2.23 45.81 3.25 C45.15 2.92 44.49 2.59 43.81 2.25 C42.04 2.22 40.26 2.26 38.48 2.34 C37.38 2.38 36.28 2.42 35.15 2.47 C33.95 2.52 32.76 2.57 31.56 2.62 C30.35 2.67 29.13 2.72 27.92 2.77 C24.22 2.92 20.51 3.09 16.81 3.25 C15.68 3.3 14.55 3.35 13.38 3.4 C7.19 3.67 1 3.95 -5.19 4.25 C-2.46 0.28 -2.46 0.28 0 0 Z " fill="#DAB899" transform="translate(362.1875,389.75)"/>
<path d="M0 0 C2.28 2.74 2.54 5.54 3 9 C3.99 9.33 4.98 9.66 6 10 C6 14.95 6 19.9 6 25 C6.99 25.33 7.98 25.66 9 26 C11.49 29.46 13.11 32.73 12.75 37 C12.5 37.66 12.25 38.32 12 39 C12.66 39 13.32 39 14 39 C14 40.65 14 42.3 14 44 C7.46 35.95 4.62 25.39 2.12 15.5 C1.91 14.65 1.69 13.8 1.47 12.93 C0.41 8.51 -0.25 4.55 0 0 Z " fill="#9B5E3D" transform="translate(98,467)"/>
<path d="M0 0 C-0.6 6.99 -2.45 13.32 -4.56 20 C-4.73 20.53 -4.73 20.53 -5.56 23.21 C-6.37 25.81 -7.18 28.41 -8 31 C-8.66 31 -9.32 31 -10 31 C-10 27.7 -10 24.4 -10 21 C-9.34 21 -8.68 21 -8 21 C-8 18.36 -8 15.72 -8 13 C-7.34 13 -6.68 13 -6 13 C-6.04 12.13 -6.08 11.27 -6.12 10.38 C-5.99 6.84 -5.36 4.25 -4 1 C-2 0 -2 0 0 0 Z " fill="#E4BB9A" transform="translate(666,448)"/>
<path d="M0 0 C1.32 0.66 2.64 1.32 4 2 C3.01 3.98 2.02 5.96 1 8 C0.34 8 -0.32 8 -1 8 C-1 8.66 -1 9.32 -1 10 C-0.34 10.66 0.32 11.32 1 12 C0.67 12.99 0.34 13.98 0 15 C-2.31 15.33 -4.62 15.66 -7 16 C-7 17.98 -7 19.96 -7 22 C-8.98 22.33 -10.96 22.66 -13 23 C-13.33 22.01 -13.66 21.02 -14 20 C-12.51 17.79 -11.01 15.79 -9.31 13.75 C-5.73 9.37 -2.66 5.01 0 0 Z " fill="#E6B48F" transform="translate(511,353)"/>
<path d="M0 0 C1.32 0.66 2.64 1.32 4 2 C3.01 2 2.02 2 1 2 C0.67 3.32 0.34 4.64 0 6 C-0.66 6 -1.32 6 -2 6 C-2 6.66 -2 7.32 -2 8 C-2.78 8.23 -3.57 8.45 -4.38 8.69 C-7.69 10.34 -7.84 11.59 -9 15 C-10.99 17.44 -13.03 18.92 -16 20 C-18.13 19.55 -18.13 19.55 -20 19 C-13.78 11.92 -7.75 5.43 0 0 Z " fill="#E7CCB0" transform="translate(256,484)"/>
<path d="M0 0 C0.33 0 0.66 0 1 0 C1.34 2.04 1.67 4.08 2 6.12 C2.19 7.26 2.37 8.4 2.56 9.57 C2.97 12.76 3.08 15.79 3 19 C1.02 19 -0.96 19 -3 19 C-3 18.34 -3 17.68 -3 17 C-2.01 17 -1.02 17 0 17 C0 16.34 0 15.68 0 15 C-1.32 15 -2.64 15 -4 15 C-4 10.38 -4 5.76 -4 1 C-3.01 1.33 -2.02 1.66 -1 2 C-0.67 1.34 -0.34 0.68 0 0 Z " fill="#EBB48E" transform="translate(308,381)"/>
<path d="M0 0 C2.38 -0.19 2.38 -0.19 5 0 C5.13 0.24 5.13 0.24 5.8 1.48 C7 3 7 3 9.61 3.43 C10.15 3.45 10.15 3.45 12.88 3.51 C13.46 3.53 14.03 3.55 14.62 3.57 C16.46 3.62 18.29 3.65 20.12 3.69 C21.37 3.72 22.61 3.76 23.86 3.79 C26.9 3.88 29.95 3.94 33 4 C33 3.34 33 2.68 33 2 C34.32 2.33 35.64 2.66 37 3 C28 7.78 19.87 9.23 10.06 6.31 C5.66 4.93 3.05 3.49 0 0 Z " fill="#96603E" transform="translate(127,528)"/>
<path d="M0 0 C1.21 2.33 2.17 4.5 3 7 C2.11 8.94 2.11 8.94 0.75 11 C0.31 11.68 -0.13 12.36 -0.58 13.06 C-1.94 14.92 -3.26 16.5 -5 18 C-5.66 18 -6.32 18 -7 18 C-7 19.32 -7 20.64 -7 22 C-7.66 22 -8.32 22 -9 22 C-9 22.66 -9 23.32 -9 24 C-9.66 24 -10.32 24 -11 24 C-8.59 15.64 -5.07 7.13 0 0 Z " fill="#9F5B37" transform="translate(117,368)"/>
<path d="M0 0 C1.32 0.66 2.64 1.32 4 2 C2.76 4.4 1.51 6.79 0.25 9.19 C-0.1 9.86 -0.45 10.53 -0.8 11.23 C-2.89 15.18 -5.08 18.61 -8 22 C-8 12.84 -8 12.84 -5 9 C-3.96 5.87 -4.07 5.01 -5 2 C-3.68 2 -2.36 2 -1 2 C-0.67 1.34 -0.34 0.68 0 0 Z " fill="#E5B390" transform="translate(541,349)"/>
<path d="M0 0 C0.33 0 0.66 0 1 0 C1.09 4.18 1.14 7.94 0 12 C0.33 12.33 0.66 12.66 1 13 C1.13 14.6 1.18 16.21 1.19 17.81 C1.2 18.69 1.22 19.56 1.23 20.46 C0.99 23.11 0.34 24.72 -1 27 C-1.01 26.67 -1.01 26.67 -1.08 24.98 C-1.62 16.24 -3.99 8.76 -8 1 C-6.21 1.03 -4.42 1.07 -2.63 1.1 C-1 1 -1 1 0 0 Z " fill="#EDB087" transform="translate(287,375)"/>
<path d="M0 0 C0.66 0.99 1.32 1.98 2 3 C-2.75 6 -2.75 6 -5 6 C-5 6.66 -5 7.32 -5 8 C-5.66 8 -6.32 8 -7 8 C-7 8.66 -7 9.32 -7 10 C-7.66 10 -8.32 10 -9 10 C-9 10.66 -9 11.32 -9 12 C-10.66 13.02 -12.32 14.02 -14 15 C-14.33 15.66 -14.66 16.32 -15 17 C-15.66 17 -16.32 17 -17 17 C-17 17.99 -17 18.98 -17 20 C-17.66 20 -18.32 20 -19 20 C-19 20.66 -19 21.32 -19 22 C-19.66 22 -20.32 22 -21 22 C-21 22.66 -21 23.32 -21 24 C-21.66 24 -22.32 24 -23 24 C-23.33 25.32 -23.66 26.64 -24 28 C-24.99 28 -25.98 28 -27 28 C-27.33 28.66 -27.66 29.32 -28 30 C-28.33 29.34 -28.66 28.68 -29 28 C-25.13 23.51 -21.24 19.14 -17 15 C-16.5 14.48 -16 13.96 -15.49 13.42 C-10.69 8.46 -5.45 4.22 0 0 Z " fill="#885939" transform="translate(165,208)"/>
<path d="M0 0 C0.33 1.32 0.66 2.64 1 4 C2.98 3.67 4.96 3.34 7 3 C7 4.32 7 5.64 7 7 C9.97 7 12.94 7 16 7 C16.33 7.99 16.66 8.98 17 10 C14.19 10.17 14.19 10.17 0 11 C0 7.37 0 3.74 0 0 Z " fill="#964B2A" transform="translate(311,389)"/>
<path d="M0 0 C1.32 0 2.64 0 4 0 C4 0.66 4 1.32 4 2 C4.66 2 5.32 2 6 2 C6 2.66 6 3.32 6 4 C9.63 4 13.26 4 17 4 C17 5.65 17 7.3 17 9 C16.34 9 15.68 9 15 9 C15 9.66 15 10.32 15 11 C11.05 10.41 8.13 9.2 4.69 7.19 C3.8 6.69 2.92 6.18 2.01 5.67 C0 4 0 4 -0.29 1.8 C-0.2 1.21 -0.1 0.61 0 0 Z " fill="#F4CAA6" transform="translate(288,196)"/>
<path d="M0 0 C4.13 0.41 6.53 1.82 9.75 4.38 C10.53 4.98 11.31 5.59 12.11 6.21 C14 8 14 8 15 11 C14.34 11 13.68 11 13 11 C11.38 12.5 11.38 12.5 10 14 C9 11 9 11 9 7 C6.36 7.33 3.72 7.66 1 8 C0.86 7.4 0.71 6.8 0.56 6.19 C0.11 4.44 -0.43 2.71 -1 1 C-0.67 0.67 -0.34 0.34 0 0 Z " fill="#F0C9AB" transform="translate(343,185)"/>
<path d="M0 0 C0.66 0 1.32 0 2 0 C1.45 4.55 -0.2 8.39 -3 12 C-5.19 12.81 -5.19 12.81 -7 13 C-7.33 13.66 -7.66 14.32 -8 15 C-8.64 15.12 -9.28 15.25 -9.94 15.38 C-12 16 -12 16 -13.25 18.06 C-13.5 18.7 -13.75 19.34 -14 20 C-15.32 19.67 -16.64 19.34 -18 19 C-15.54 16.54 -13.08 14.08 -10.62 11.62 C-10.22 11.22 -9.82 10.81 -9.4 10.39 C-8.33 9.32 -7.25 8.26 -6.16 7.2 C-5.53 6.58 -4.9 5.95 -4.25 5.31 C-3.66 4.73 -3.06 4.15 -2.45 3.55 C-1 2 -1 2 0 0 Z " fill="#E9B792" transform="translate(566,540)"/>
<path d="M0 0 C0.33 1.32 0.66 2.64 1 4 C0.34 4 -0.32 4 -1 4 C-1.1 4.76 -1.21 5.53 -1.31 6.31 C-2.05 9.18 -2.67 10.23 -5 12 C-5.66 12 -6.32 12 -7 12 C-7.14 12.31 -7.14 12.31 -7.88 13.88 C-9 16 -9 16 -11 18 C-13.12 18.12 -13.12 18.12 -15 18 C-15 18.66 -15 19.32 -15 20 C-15.99 19.67 -16.98 19.34 -18 19 C-17.53 18.53 -17.05 18.06 -16.56 17.58 C-14.41 15.45 -12.27 13.32 -10.12 11.19 C-9.38 10.45 -8.63 9.71 -7.86 8.95 C-7.15 8.24 -6.43 7.53 -5.7 6.79 C-5.04 6.14 -4.38 5.48 -3.7 4.81 C-2.25 3.27 -1.1 1.8 0 0 Z " fill="#E7CCB0" transform="translate(639,386)"/>
<path d="M0 0 C0.99 0.33 1.98 0.66 3 1 C-8.07 10.19 -26.47 7.3 -40 7 C-40 6.67 -40 6.34 -40 6 C-33.4 6 -26.8 6 -20 6 C-20 5.34 -20 4.68 -20 4 C-16.04 4 -12.08 4 -8 4 C-8 3.34 -8 2.68 -8 2 C-5.36 2 -2.72 2 0 2 C0 1.34 0 0.68 0 0 Z " fill="#814D32" transform="translate(352,394)"/>
<path d="M0 0 C10.42 3.2 10.42 3.2 14 6 C14.81 8.19 14.81 8.19 15 10 C11.87 11.04 11.01 10.93 8 10 C8 8.68 8 7.36 8 6 C7.01 6 6.02 6 5 6 C5 6.66 5 7.32 5 8 C3.35 8.33 1.7 8.66 0 9 C0.66 8.01 1.32 7.02 2 6 C1.67 5.57 1.34 5.13 1 4.69 C0 3 0 3 0 0 Z " fill="#F2CBAD" transform="translate(312,166)"/>
<path d="M0 0 C3 3.75 3 3.75 3 6 C3.95 6.12 4.9 6.25 5.88 6.38 C9 7 9 7 11 9 C10.97 11.41 10.44 13.62 10 16 C4.5 11.48 0.47 7.84 -2 1 C-1.34 0.67 -0.68 0.34 0 0 Z " fill="#F5C8A5" transform="translate(325,218)"/>
<path d="M0 0 C-0.33 0.99 -0.66 1.98 -1 3 C-7.76 2.83 -7.76 2.83 -42 2 C-42 1.67 -42 1.34 -42 1 C-28 0.4 -14.02 -0.19 0 0 Z " fill="#E8B088" transform="translate(215,332)"/>
<path d="M0 0 C4.4 7.33 3.12 16.7 3.06 24.94 C3.06 26.21 3.05 27.48 3.05 28.74 C3.04 31.83 3.02 34.91 3 38 C2.67 38 2.34 38 2 38 C1.67 31.4 1.34 24.8 1 18 C0.67 18.99 0.34 19.98 0 21 C-0.66 21 -1.32 21 -2 21 C-2.25 15.57 -2.25 15.57 -1 12.75 C0.52 8.56 0.15 4.41 0 0 Z " fill="#442718" transform="translate(638,251)"/>
<path d="M0 0 C11.97 -0.81 23.32 1.63 35 4 C35 4.33 35 4.66 35 5 C29.72 5 24.44 5 19 5 C19 4.34 19 3.68 19 3 C16.36 3 13.72 3 11 3 C11 2.34 11 1.68 11 1 C7.37 1 3.74 1 0 1 C0 0.67 0 0.34 0 0 Z " fill="#4A2E1E" transform="translate(394,101)"/>
</svg>
