<svg version="1.1" id="Layer_1" xmlns="http://www.w3.org/2000/svg" xmlns:xlink="http://www.w3.org/1999/xlink" x="0px" y="0px"
	 width="100%" viewBox="0 0 810 1440" enable-background="new 0 0 810 1440" xml:space="preserve">
<path fill="#000000" opacity="1.000000" stroke="none" 
	d="
M311.000000,1441.000000 
	C207.333328,1441.000000 104.166664,1441.000000 1.000000,1441.000000 
	C1.000000,961.000000 1.000000,481.000000 1.000000,1.000000 
	C271.000000,1.000000 541.000000,1.000000 811.000000,1.000000 
	C811.000000,481.000000 811.000000,961.000000 811.000000,1441.000000 
	C644.500000,1441.000000 478.000000,1441.000000 311.000000,1441.000000 
M229.568436,715.938660 
	C229.662582,715.630859 229.756729,715.323120 229.995712,714.288574 
	C230.037415,713.549988 230.079132,712.811401 230.704239,711.821838 
	C230.751343,711.213013 230.798447,710.604126 230.994965,709.224609 
	C231.018158,708.179749 231.041336,707.134827 231.838593,705.664307 
	C231.228043,695.026489 231.131073,684.325928 229.840042,673.771301 
	C228.854614,665.715210 226.849701,657.620239 220.030991,651.969910 
	C220.030991,651.969910 220.113281,652.002625 219.905457,651.373291 
	C219.598770,651.058044 219.292084,650.742798 218.703491,649.871033 
	C213.012527,642.481506 206.203735,636.478149 197.811630,632.010803 
	C192.818726,630.518311 187.138718,631.018982 183.013840,626.992554 
	C183.013840,626.992554 183.083069,626.955017 182.852142,626.322998 
	C181.894897,625.848877 180.937653,625.374817 179.998657,624.980408 
	C179.998657,624.980408 180.077072,624.957581 179.874985,624.374084 
	C179.089157,624.363953 178.303345,624.353821 176.827103,623.969666 
	C175.697647,623.298157 174.623764,622.500427 173.429977,621.975220 
	C163.603729,617.651733 153.227463,616.337219 142.636871,616.972534 
	C130.800064,617.682678 119.940018,621.591187 109.347397,628.083008 
	C108.868301,628.378174 108.389198,628.673340 107.989700,628.978699 
	C107.989700,628.978699 107.993370,628.898560 107.306343,629.148010 
	C106.225395,629.767395 105.166054,630.428650 104.059944,630.999268 
	C97.905151,634.174377 91.431984,637.015747 90.004082,644.994385 
	C90.004082,644.994385 89.951347,644.909119 89.422966,645.055481 
	C89.250252,645.363831 89.077530,645.672241 88.984558,645.983704 
	C88.984558,645.983704 88.981216,645.903992 88.435883,646.074768 
	C88.252968,646.397217 88.070053,646.719666 87.264122,647.255615 
	C85.981499,648.560669 84.688103,649.855286 83.418045,651.172424 
	C76.756454,658.081055 71.837685,666.045654 69.336525,675.337708 
	C68.928619,676.853088 69.393471,678.968628 70.251572,680.289246 
	C70.622284,680.859802 73.018661,680.114197 74.978760,680.622986 
	C75.630325,683.057434 76.281883,685.491882 76.996292,687.988586 
	C76.996292,687.988586 76.921440,687.942200 76.277107,688.125244 
	C76.142784,688.770935 76.008469,689.416565 75.260109,690.383240 
	C74.193924,692.884155 73.127739,695.385071 71.398926,698.084778 
	C71.274292,698.511597 71.149658,698.938354 70.967461,699.436951 
	C70.967461,699.436951 71.033989,699.500610 70.359756,699.993774 
	C70.257721,701.082703 70.155693,702.171631 69.923393,703.398560 
	C69.923393,703.398560 70.044876,703.544373 69.328583,704.066467 
	C68.714310,710.191833 67.810051,716.328796 69.947685,722.951599 
	C71.405899,726.587952 72.381462,730.524902 74.421089,733.799072 
	C78.903458,740.994629 86.298393,740.525818 94.554489,733.008179 
	C95.919296,733.756714 98.307693,734.325623 98.475876,735.284119 
	C99.308136,740.027100 99.066856,744.985962 100.149361,749.649353 
	C101.138771,753.911682 103.336761,757.893433 105.048027,762.667542 
	C105.693611,763.450684 106.339195,764.233826 107.083504,765.540222 
	C107.383690,765.699524 107.683876,765.858765 108.087708,766.538452 
	C108.386864,766.697876 108.686020,766.857239 109.084839,767.538086 
	C109.383499,767.699219 109.682167,767.860352 110.078979,768.541504 
	C110.376358,768.703369 110.673737,768.865234 111.165428,769.663879 
	C112.104149,770.115173 113.042862,770.566467 114.227623,771.704651 
	C132.263474,781.252502 150.941360,782.446411 170.627701,776.040955 
	C170.627701,776.040955 171.011154,775.862000 171.720840,775.975769 
	C172.824493,775.327698 173.928131,774.679626 175.819763,773.997131 
	C178.100616,773.250122 180.518097,772.775818 182.640472,771.712524 
	C197.833664,764.100220 209.545151,752.659180 219.105957,738.731628 
	C223.659668,732.098083 226.695969,725.002075 228.553268,716.949280 
	C228.743622,716.649536 228.933960,716.349854 229.043213,716.039795 
	C229.043213,716.039795 229.065765,716.118408 229.568436,715.938660 
M536.512634,667.161133 
	C536.219788,667.360779 536.045105,667.635559 535.997559,668.000000 
	C535.997559,668.000000 535.981567,667.989380 535.360229,668.249695 
	C534.283630,669.505127 533.207031,670.760498 531.781006,672.630798 
	C530.498413,674.681885 529.209167,676.728882 527.934326,678.784851 
	C523.295410,686.265686 525.134460,695.031616 525.962219,702.390137 
	C527.482971,715.909180 536.269531,725.622314 550.622437,729.929260 
	C555.548401,730.584473 560.491211,731.886658 565.396667,731.758301 
	C575.175720,731.502319 583.392761,727.261047 590.002441,720.002441 
	C590.002441,720.002441 590.032837,720.022949 590.636780,719.741211 
	C591.375061,718.477539 592.113403,717.213806 593.521667,715.711609 
	C595.030945,712.377930 596.540161,709.044250 598.761169,705.811401 
	C599.116150,704.575623 599.471191,703.339783 600.042358,701.737793 
	C600.042358,701.737793 599.969666,701.318909 600.678284,700.833618 
	C601.536987,693.751038 602.523254,686.658142 598.994812,680.004883 
	C598.994812,680.004883 599.070374,680.005310 598.902283,679.505005 
	C598.603394,679.357422 598.304504,679.209839 598.014954,678.307617 
	C595.711792,669.780945 589.316528,664.995239 581.948059,660.426514 
	C581.634644,660.294495 581.321228,660.162537 580.565063,660.011108 
	C580.565063,660.011108 580.132263,659.915222 579.956238,659.453857 
	C579.616394,659.557068 579.276611,659.660339 578.835083,659.746704 
	C578.835083,659.746704 578.750244,659.805237 578.120056,659.627319 
	C567.294922,654.027710 556.426331,654.695618 545.770569,659.875122 
	C542.867310,661.286316 540.547913,663.898743 537.982605,665.986389 
	C537.982605,665.986389 537.969604,665.967896 537.498108,666.144775 
	C537.324402,666.422485 537.150757,666.700134 537.000000,667.000000 
	C537.000000,667.000000 536.977417,666.977661 536.512634,667.161133 
M442.011871,695.007568 
	C442.011871,695.007568 442.057434,695.063660 442.719818,694.887329 
	C443.089996,693.827087 443.460175,692.766846 443.963989,690.964844 
	C446.616333,684.341553 449.268707,677.718262 452.223541,670.499939 
	C454.440247,666.659790 456.656952,662.819580 459.311554,658.220764 
	C454.838531,658.220764 450.057159,658.190369 445.278442,658.289001 
	C444.958618,658.295593 444.658936,659.279236 444.349915,659.808472 
	C445.174866,660.194153 445.999817,660.579834 446.962189,661.552246 
	C447.297852,661.729614 447.633514,661.906982 447.983856,662.013794 
	C447.983856,662.013794 447.912384,662.023254 447.933380,662.877686 
	C447.263550,666.901367 446.593750,670.925049 446.000000,675.000000 
	C446.000000,675.000000 445.922272,674.949890 445.193176,675.209106 
	C445.102753,676.487305 445.012299,677.765442 444.272064,679.356934 
	C441.199615,686.973633 437.939209,694.522156 435.141663,702.238525 
	C433.921295,705.604736 433.649658,709.314880 432.312378,713.212708 
	C431.217651,712.872192 429.435486,712.835571 429.130615,712.145874 
	C424.023712,700.593567 418.922791,689.031250 414.222931,677.309814 
	C412.256256,672.404907 411.227997,667.123657 410.274139,661.437073 
	C412.462769,660.264221 414.651398,659.091370 416.376099,657.228516 
	C407.561676,657.197327 398.747223,657.154724 389.933014,657.181763 
	C389.621613,657.182678 389.312347,657.875061 389.262360,658.777161 
	C390.797485,659.566650 392.332611,660.356079 394.195343,661.753052 
	C404.851532,684.828430 415.507721,707.903748 426.818512,732.396606 
	C429.450897,725.135437 431.670227,719.013672 434.112183,712.478699 
	C434.386932,712.117371 434.661713,711.756042 435.694946,711.078979 
	C436.490845,709.062744 437.286743,707.046448 438.005615,705.006409 
	C438.005615,705.006409 438.063110,705.062927 438.706573,704.921509 
	C438.831909,704.295410 438.957245,703.669373 439.001221,703.007324 
	C439.001221,703.007324 439.083618,703.048950 439.786011,702.841736 
	C440.218384,701.242554 440.650787,699.643311 441.000000,698.007324 
	C441.000000,698.007324 441.082520,698.051270 441.776855,697.849854 
	C441.879272,696.903137 441.981689,695.956421 442.011871,695.007568 
M687.788879,716.836914 
	C688.816040,713.881836 689.843262,710.926697 691.080383,707.315369 
	C691.441772,706.249634 691.803162,705.183838 692.878479,703.702271 
	C701.542969,703.521912 710.207458,703.341553 719.206299,703.763428 
	C722.099060,710.248657 725.130127,716.679321 727.735291,723.278076 
	C728.124817,724.264709 726.674927,726.152283 725.781128,727.414185 
	C725.096252,728.381165 723.946594,729.018921 722.286682,730.194824 
	C730.440369,730.147400 738.594116,730.099976 747.267029,729.615662 
	C747.290405,729.179443 747.313843,728.743225 747.337219,728.307007 
	C743.138367,728.785400 741.752502,725.561768 740.285034,722.713745 
	C738.713745,719.664124 737.468628,716.445679 736.100708,713.292358 
	C728.414246,695.574219 720.669312,677.880859 713.116577,660.105774 
	C711.901550,657.246216 710.443115,656.183777 707.305176,657.351013 
	C706.569214,660.591187 705.811584,663.926575 704.462280,667.438477 
	C703.664429,668.639404 702.866638,669.840393 701.329529,671.143799 
	C697.981140,677.316223 694.059998,683.280334 693.796631,691.361572 
	C689.762573,701.200867 685.728516,711.040100 681.193481,721.351257 
	C678.151245,729.875427 674.534180,730.806824 668.291687,724.656616 
	C667.588074,723.963379 666.938110,723.208923 666.318115,722.438599 
	C659.090088,713.456970 655.343628,701.631897 643.320435,695.799500 
	C650.562256,693.137573 656.372314,690.344788 659.978149,684.222778 
	C662.582886,679.800293 662.720581,672.748840 659.956848,668.310547 
	C655.549988,661.233826 648.998596,658.321533 640.580627,657.185181 
	C629.595337,657.185181 618.610046,657.185181 607.624695,657.185181 
	C607.626648,657.474060 607.628540,657.763000 607.630493,658.051880 
	C618.730286,658.051880 629.830139,658.051880 640.897766,658.806091 
	C641.916870,660.362549 642.702942,662.153198 643.993225,663.437134 
	C651.934326,671.338867 651.859253,681.513855 644.303772,689.479675 
	C641.268311,692.679993 638.262329,694.274536 633.947876,693.969666 
	C632.655090,693.878296 631.298523,694.690308 631.293884,694.691711 
	C634.597290,697.832458 638.602966,700.815002 641.533630,704.624573 
	C645.725952,710.074158 648.878906,716.314392 652.952698,721.867065 
	C656.353821,726.502808 660.069336,731.110840 666.830505,730.994995 
	C674.205078,730.868591 681.584167,731.004089 688.958008,730.857361 
	C690.003601,730.836670 691.030334,729.866333 692.794739,728.961853 
	C689.765869,728.083008 687.775085,727.505371 685.893555,726.072571 
	C686.286377,723.067993 686.679199,720.063354 687.004883,717.000916 
	C687.004883,717.000916 687.080444,717.047974 687.788879,716.836914 
M464.023651,658.886414 
	C466.642517,660.324951 469.261383,661.763489 471.562225,663.797607 
	C472.038300,665.591431 472.948486,667.391541 472.923004,669.178162 
	C472.679443,686.239990 472.361053,703.301941 471.861115,720.357910 
	C471.738983,724.524109 469.730377,727.549744 465.004913,728.011353 
	C464.317963,728.078491 463.747406,729.337158 463.402740,730.873962 
	C481.340881,730.916565 499.279022,730.970947 517.217163,730.966431 
	C518.096802,730.966187 518.976257,730.452026 520.247375,729.399414 
	C520.865051,723.396851 521.571289,717.400391 521.991272,711.384033 
	C522.045410,710.608643 520.615601,709.729675 519.873230,708.898682 
	C519.224976,709.807190 517.915527,710.812012 518.031616,711.609253 
	C519.096313,718.921448 513.527161,721.829285 508.913940,724.917969 
	C501.172821,730.100891 492.231354,727.609314 483.904236,726.965942 
	C484.267395,705.326660 484.630524,683.687439 485.668884,661.853088 
	C487.783875,660.889709 489.898895,659.926331 492.755005,659.025146 
	C492.913910,658.981018 493.086914,658.962280 493.227325,658.884705 
	C493.341919,658.821289 493.417603,658.687439 493.510529,658.584839 
	C492.697754,658.075073 491.891296,657.133911 491.071259,657.121887 
	C482.332428,656.994385 473.591370,656.999512 464.851379,657.048218 
	C464.503754,657.050232 464.160583,657.851685 464.023651,658.886414 
M307.476135,657.257141 
	C297.427795,657.257141 287.379456,657.257141 276.659302,657.257141 
	C277.726044,658.123962 278.302429,658.592407 279.294556,659.509155 
	C282.151184,661.081116 285.007843,662.653076 287.898285,664.773621 
	C287.879211,665.139526 287.860168,665.505371 287.381592,666.440796 
	C287.568909,667.240234 287.917938,668.039246 287.919647,668.839111 
	C287.952087,684.103333 287.961182,699.367615 287.907104,714.631714 
	C287.903198,715.732117 287.376892,716.830627 287.167938,718.621155 
	C288.175568,723.350464 285.414642,726.137573 281.710632,727.788818 
	C279.739380,728.667542 277.155426,728.171631 274.848022,728.296204 
	C275.372986,726.569885 275.737457,724.773438 276.455292,723.131470 
	C278.106995,719.353577 276.216553,716.891541 273.104034,715.796631 
	C270.253876,714.794006 266.544586,713.230469 264.422546,717.178589 
	C262.602081,720.565552 264.244659,726.018860 267.569244,728.139282 
	C278.302856,734.985413 289.886932,732.699707 295.716034,722.601196 
	C298.703827,717.425110 298.894379,709.989563 298.557617,703.670654 
	C297.810211,689.647400 296.972473,675.745789 301.815613,661.763733 
	C302.964294,661.169006 304.152771,660.638550 305.249847,659.960327 
	C306.230194,659.354187 307.109772,658.585022 307.476135,657.257141 
M616.027466,665.982910 
	C616.027466,665.982910 615.945984,665.936707 616.160095,666.862793 
	C616.154785,682.763794 616.154053,698.664795 616.139282,714.565796 
	C616.136963,717.043030 616.070374,719.520203 615.904968,722.721069 
	C613.274170,725.066223 610.643372,727.411438 608.213013,729.578003 
	C612.326172,732.009521 632.213745,731.835754 635.057373,728.419556 
	C628.727539,728.649658 628.421997,724.016174 628.137390,719.857666 
	C627.549805,711.273926 627.347900,702.663696 627.801331,693.703735 
	C627.869873,683.411682 627.957581,673.119568 627.962158,662.827515 
	C627.962463,662.169861 627.318787,661.511963 627.379883,660.226562 
	C627.314697,659.811096 627.253540,659.032532 627.183899,659.031799 
	C621.986267,658.975220 616.788025,658.980164 611.589783,658.980164 
	C611.527161,659.319336 611.464478,659.658508 611.401855,659.997742 
	C612.327271,660.346375 613.252625,660.695068 614.035767,661.769287 
	C614.359619,662.357117 614.683472,662.944885 614.895813,663.633545 
	C614.895813,663.633545 614.977295,663.759949 614.981201,664.495178 
	C615.317200,665.019592 615.653198,665.544067 616.027466,665.982910 
M384.708130,712.786621 
	C385.154541,711.526489 385.600952,710.266296 386.359833,708.382690 
	C391.095215,700.903748 391.007782,692.654114 389.153046,684.591858 
	C386.560364,673.321533 379.321442,665.328735 368.990845,659.366760 
	C368.662415,659.233093 368.333954,659.099426 367.348083,659.009827 
	C366.912994,658.969116 366.477936,658.928406 365.585999,658.280029 
	C363.345367,657.818542 361.115997,657.291443 358.862335,656.906067 
	C342.472870,654.103455 329.088989,659.759583 320.007782,673.304016 
	C314.261963,681.873779 313.571716,691.246765 314.730438,701.558899 
	C316.620605,718.380859 332.901031,731.404053 349.035553,732.000488 
	C355.742523,732.248474 362.215973,731.481995 368.010193,728.353760 
	C373.064362,725.625122 378.918243,723.362915 381.272888,716.654968 
	C381.513794,716.442932 381.759308,716.236328 382.544434,715.744019 
	C382.742401,715.181152 382.940369,714.618225 383.528809,713.831116 
	C383.770691,713.642456 383.955200,713.408508 384.708130,712.786621 
z"/>
<path fill="#592F17" opacity="1.000000" stroke="none" 
	d="
M110.000626,628.052490 
	C119.940018,621.591187 130.800064,617.682678 142.636871,616.972534 
	C153.227463,616.337219 163.603729,617.651733 173.429977,621.975220 
	C174.623764,622.500427 175.697647,623.298157 177.430511,624.306702 
	C178.714966,624.748352 179.396011,624.852966 180.077072,624.957581 
	C180.077072,624.957581 179.998657,624.980408 179.957977,625.331543 
	C180.972565,626.106750 182.027817,626.530884 183.083069,626.955017 
	C183.083069,626.955017 183.013840,626.992554 182.752121,627.235352 
	C184.554718,629.720642 186.619034,631.963257 188.762955,634.567627 
	C189.927414,637.526611 191.353729,640.036499 192.043488,642.734741 
	C197.914154,665.700134 191.652618,684.905640 173.503464,700.611328 
	C168.312866,703.257935 163.374207,705.131470 157.781250,703.517761 
	C155.796600,702.945190 154.186310,702.363831 156.394348,699.854370 
	C171.986053,674.235596 154.900406,644.563843 126.741318,633.752808 
	C121.220573,632.684265 116.027214,631.835632 110.877518,630.774963 
	C109.831673,630.559570 108.950462,629.544800 107.993362,628.898560 
	C107.993370,628.898560 107.989700,628.978699 108.230789,629.188782 
	C108.981476,628.950073 109.491058,628.501282 110.000626,628.052490 
z"/>
<path fill="#9F5328" opacity="1.000000" stroke="none" 
	d="
M74.494873,679.966431 
	C73.018661,680.114197 70.622284,680.859802 70.251572,680.289246 
	C69.393471,678.968628 68.928619,676.853088 69.336525,675.337708 
	C71.837685,666.045654 76.756454,658.081055 83.418045,651.172424 
	C84.688103,649.855286 85.981499,648.560669 87.932404,647.151794 
	C88.727524,646.666626 88.854370,646.285339 88.981216,645.903992 
	C88.981216,645.903992 88.984558,645.983704 89.352226,646.085999 
	C89.797043,645.761902 89.874191,645.335510 89.951340,644.909119 
	C89.951347,644.909119 90.004082,644.994385 90.221390,645.313721 
	C97.983322,641.201294 106.086876,640.008118 114.948700,641.652588 
	C123.149086,643.899414 129.625488,648.205078 135.543350,653.776794 
	C147.656815,665.181702 151.863373,687.399109 142.464447,698.966675 
	C138.032349,699.437073 133.940689,699.744507 129.920593,699.650208 
	C129.259506,687.693115 117.993179,676.751587 103.542496,673.943298 
	C93.115723,671.916992 83.084969,672.699890 74.494873,679.966431 
z"/>
<path fill="#FCFAF5" opacity="1.000000" stroke="none" 
	d="
M129.849045,700.051880 
	C133.940689,699.744507 138.032349,699.437073 142.895020,699.013489 
	C145.275131,698.647522 146.928802,698.037292 148.483231,698.229492 
	C151.051819,698.547119 153.556381,699.382507 156.087921,699.999756 
	C154.186310,702.363831 155.796600,702.945190 157.781250,703.517761 
	C163.374207,705.131470 168.312866,703.257935 173.658661,700.959290 
	C178.849579,701.010620 183.542755,700.887939 188.619568,700.727905 
	C198.256104,700.268921 205.420364,695.331848 211.567245,689.196411 
	C221.318756,679.463013 225.774796,668.052124 220.007477,654.341797 
	C219.721481,653.661865 220.049667,652.723633 220.091858,651.905640 
	C226.849701,657.620239 228.854614,665.715210 229.840042,673.771301 
	C231.131073,684.325928 231.228043,695.026489 231.205704,705.572510 
	C230.634308,703.525513 230.810638,701.565674 230.734039,699.615845 
	C230.559692,695.176636 230.261200,690.742249 230.013138,686.305908 
	C229.395264,686.262878 228.777374,686.219849 228.159500,686.176758 
	C227.381241,688.778320 226.602982,691.379883 225.624420,694.231812 
	C224.773071,694.993958 223.955994,695.387756 223.495819,696.035217 
	C216.122528,706.409180 205.157074,710.844788 193.500534,713.875732 
	C173.843658,718.986938 153.555389,717.116638 133.576477,718.545837 
	C124.333092,719.207031 117.465225,723.050659 110.914665,728.473083 
	C106.238876,732.343628 103.383728,737.002563 102.374535,743.583069 
	C101.337044,750.348083 103.268776,755.983032 105.029144,761.975708 
	C105.020004,761.983276 105.002144,761.998840 105.002144,761.998840 
	C103.336761,757.893433 101.138771,753.911682 100.149361,749.649353 
	C99.066856,744.985962 99.308136,740.027100 98.475876,735.284119 
	C98.307693,734.325623 95.919296,733.756714 94.078407,732.616821 
	C99.227043,720.349182 106.519020,710.166931 119.622047,705.463501 
	C121.141884,704.917847 122.021202,702.587830 123.573090,701.074463 
	C125.915482,700.726562 127.882263,700.389221 129.849045,700.051880 
z"/>
<path fill="#9F5328" opacity="1.000000" stroke="none" 
	d="
M123.197479,701.085083 
	C122.021202,702.587830 121.141884,704.917847 119.622047,705.463501 
	C106.519020,710.166931 99.227043,720.349182 93.651138,732.594727 
	C86.298393,740.525818 78.903458,740.994629 74.421089,733.799072 
	C72.381462,730.524902 71.405899,726.587952 70.073959,722.154419 
	C70.148453,715.419678 70.096664,709.481995 70.044876,703.544373 
	C70.044876,703.544373 69.923393,703.398560 70.329803,703.074341 
	C70.835472,701.666931 70.934731,700.583740 71.033989,699.500610 
	C71.033989,699.500610 70.967461,699.436951 71.321960,699.297852 
	C71.804840,698.734497 71.933205,698.310242 72.061562,697.885986 
	C73.127739,695.385071 74.193924,692.884155 75.936813,690.108826 
	C76.716164,689.203674 76.818802,688.572937 76.921440,687.942200 
	C76.921440,687.942200 76.996292,687.988586 77.275635,688.193726 
	C88.486183,679.237549 100.174011,680.491577 111.916512,686.291016 
	C117.942184,689.267090 122.294685,693.977112 123.197479,701.085083 
z"/>
<path fill="#E5C09B" opacity="1.000000" stroke="none" 
	d="
M225.824707,693.981445 
	C226.602982,691.379883 227.381241,688.778320 228.159500,686.176758 
	C228.777374,686.219849 229.395264,686.262878 230.013138,686.305908 
	C230.261200,690.742249 230.559692,695.176636 230.734039,699.615845 
	C230.810638,701.565674 230.634308,703.525513 230.818665,705.785400 
	C231.041336,707.134827 231.018158,708.179749 230.631256,709.652283 
	C230.218643,710.744263 230.169754,711.408508 230.120850,712.072815 
	C230.079132,712.811401 230.037415,713.549988 229.727371,714.782410 
	C229.238022,715.514954 229.106934,715.795715 229.065765,716.118408 
	C229.065765,716.118408 229.043213,716.039795 228.837402,716.148926 
	C228.432861,716.546021 228.234161,716.833984 228.035461,717.121948 
	C226.695969,725.002075 223.659668,732.098083 219.105957,738.731628 
	C209.545151,752.659180 197.833664,764.100220 182.640472,771.712524 
	C180.518097,772.775818 178.100616,773.250122 175.067413,774.035522 
	C173.213760,774.669983 172.112473,775.265991 171.011169,775.862000 
	C171.011154,775.862000 170.627701,776.040955 169.968903,775.987549 
	C163.861267,776.652771 158.412445,777.371338 152.976639,777.675171 
	C153.921417,775.571655 154.445129,772.949585 155.847290,772.336487 
	C172.125549,765.218506 186.617828,755.222595 198.607239,742.439148 
	C208.475845,731.916992 216.067017,719.291443 225.166367,708.000061 
	C229.151016,703.055481 227.921188,698.754211 225.824707,693.981445 
z"/>
<path fill="#53331D" opacity="1.000000" stroke="none" 
	d="
M220.061432,651.937744 
	C220.049667,652.723633 219.721481,653.661865 220.007477,654.341797 
	C225.774796,668.052124 221.318756,679.463013 211.567245,689.196411 
	C205.420364,695.331848 198.256104,700.268921 188.413864,700.409363 
	C188.349106,699.013306 188.707230,697.775879 189.423996,696.802673 
	C196.666931,686.968445 201.118103,675.995056 202.367859,663.873169 
	C203.454437,653.334045 202.571899,643.053467 196.173553,633.690369 
	C196.581650,633.207520 197.053513,633.000427 197.525375,632.793335 
	C206.203735,636.478149 213.012527,642.481506 218.732300,650.604858 
	C219.211838,651.560059 219.662552,651.781372 220.113281,652.002625 
	C220.113281,652.002625 220.030991,651.969910 220.061432,651.937744 
z"/>
<path fill="#53331D" opacity="1.000000" stroke="none" 
	d="
M685.784302,726.927734 
	C687.775085,727.505371 689.765869,728.083008 692.794739,728.961853 
	C691.030334,729.866333 690.003601,730.836670 688.958008,730.857361 
	C681.584167,731.004089 674.205078,730.868591 666.830505,730.994995 
	C660.069336,731.110840 656.353821,726.502808 652.952698,721.867065 
	C648.878906,716.314392 645.725952,710.074158 641.533630,704.624573 
	C638.602966,700.815002 634.597290,697.832458 631.293884,694.691711 
	C631.298523,694.690308 632.655090,693.878296 633.947876,693.969666 
	C638.262329,694.274536 641.268311,692.679993 644.303772,689.479675 
	C651.859253,681.513855 651.934326,671.338867 643.993225,663.437134 
	C642.702942,662.153198 641.916870,660.362549 640.925171,658.397095 
	C640.952515,657.988037 640.998230,657.938110 640.998230,657.938110 
	C648.998596,658.321533 655.549988,661.233826 659.956848,668.310547 
	C662.720581,672.748840 662.582886,679.800293 659.978149,684.222778 
	C656.372314,690.344788 650.562256,693.137573 643.320435,695.799500 
	C655.343628,701.631897 659.090088,713.456970 666.318115,722.438599 
	C666.938110,723.208923 667.588074,723.963379 668.291687,724.656616 
	C674.534180,730.806824 678.151245,729.875427 681.882507,721.157349 
	C683.154480,721.003418 683.737366,721.043396 684.319519,721.439392 
	C684.807251,723.506165 685.295776,725.216919 685.784302,726.927734 
z"/>
<path fill="#53331D" opacity="1.000000" stroke="none" 
	d="
M380.922302,716.986816 
	C378.918243,723.362915 373.064362,725.625122 368.010193,728.353760 
	C362.215973,731.481995 355.742523,732.248474 349.035553,732.000488 
	C332.901031,731.404053 316.620605,718.380859 314.730438,701.558899 
	C313.571716,691.246765 314.261963,681.873779 320.007782,673.304016 
	C329.088989,659.759583 342.472870,654.103455 358.862335,656.906067 
	C361.115997,657.291443 363.345367,657.818542 365.780762,658.924805 
	C365.637634,660.404907 365.299683,661.240112 364.600708,662.034851 
	C348.755676,652.281555 335.038818,660.302979 329.195160,674.039429 
	C325.664948,682.337891 323.952911,690.937439 325.971405,700.156433 
	C328.166992,710.184570 331.464264,719.504028 339.745087,726.068237 
	C343.507446,729.050598 347.947327,729.952271 353.117859,729.466125 
	C359.816132,728.836304 364.478333,724.678406 370.037354,722.288696 
	C370.961365,722.673523 372.076172,723.119385 372.668762,722.743042 
	C375.497650,720.946655 378.184753,718.927002 380.922302,716.986816 
z"/>
<path fill="#5F3B22" opacity="1.000000" stroke="none" 
	d="
M287.841095,665.871277 
	C287.860168,665.505371 287.879211,665.139526 287.874573,664.095581 
	C287.625641,662.169312 287.400452,660.921082 287.056488,659.014526 
	C290.833740,659.014526 294.158112,658.714417 297.381287,659.154724 
	C298.770599,659.344543 299.950470,661.067261 301.225464,662.093628 
	C296.972473,675.745789 297.810211,689.647400 298.557617,703.670654 
	C298.894379,709.989563 298.703827,717.425110 295.716034,722.601196 
	C289.886932,732.699707 278.302856,734.985413 267.569244,728.139282 
	C264.244659,726.018860 262.602081,720.565552 264.422546,717.178589 
	C266.544586,713.230469 270.253876,714.794006 273.104034,715.796631 
	C276.216553,716.891541 278.106995,719.353577 276.455292,723.131470 
	C275.737457,724.773438 275.372986,726.569885 274.848022,728.296204 
	C277.155426,728.171631 279.739380,728.667542 281.710632,727.788818 
	C285.414642,726.137573 288.175568,723.350464 287.523865,718.211548 
	C288.253418,716.786682 288.947662,715.772949 288.952454,714.755981 
	C289.023315,699.659729 289.029205,684.562805 288.953705,669.466553 
	C288.947693,668.266296 288.228760,667.069641 287.841095,665.871277 
z"/>
<path fill="#5F3B22" opacity="1.000000" stroke="none" 
	d="
M463.122986,730.044495 
	C463.747406,729.337158 464.317963,728.078491 465.004913,728.011353 
	C469.730377,727.549744 471.738983,724.524109 471.861115,720.357910 
	C472.361053,703.301941 472.679443,686.239990 472.923004,669.178162 
	C472.948486,667.391541 472.038300,665.591431 471.750336,663.112549 
	C471.938446,661.352844 471.938446,660.278198 471.938446,659.017578 
	C475.104797,659.017578 477.979523,658.699341 480.723175,659.160706 
	C481.972015,659.370667 482.961609,661.122253 484.046692,662.529785 
	C483.652771,664.258728 483.280945,665.632507 482.521667,667.108398 
	C481.758362,668.056702 481.057526,668.901794 481.054504,669.749390 
	C480.990417,687.818542 480.975708,705.888184 481.080200,723.956970 
	C481.086060,724.971130 482.199402,725.978882 482.962006,727.129761 
	C483.280182,727.522339 483.484894,727.722168 483.740875,727.869446 
	C492.231354,727.609314 501.172821,730.100891 508.913940,724.917969 
	C513.527161,721.829285 519.096313,718.921448 518.031616,711.609253 
	C517.915527,710.812012 519.224976,709.807190 519.873230,708.898682 
	C520.615601,709.729675 522.045410,710.608643 521.991272,711.384033 
	C521.571289,717.400391 520.865051,723.396851 519.593262,729.766357 
	C500.333771,730.103699 481.728363,730.074097 463.122986,730.044495 
z"/>
<path fill="#53331D" opacity="1.000000" stroke="none" 
	d="
M614.977295,663.759949 
	C614.977295,663.759949 614.895813,663.633545 615.102295,663.241577 
	C614.931885,662.247620 614.554932,661.645691 614.178040,661.043762 
	C613.252625,660.695068 612.327271,660.346375 611.401855,659.997742 
	C611.464478,659.658508 611.527161,659.319336 611.589783,658.980164 
	C616.788025,658.980164 621.986267,658.975220 627.183899,659.031799 
	C627.253540,659.032532 627.314697,659.811096 627.096069,661.012573 
	C626.870605,672.553833 626.928955,683.309082 626.987305,694.064392 
	C627.347900,702.663696 627.549805,711.273926 628.137390,719.857666 
	C628.421997,724.016174 628.727539,728.649658 635.057373,728.419556 
	C632.213745,731.835754 612.326172,732.009521 608.213013,729.578003 
	C610.643372,727.411438 613.274170,725.066223 616.151367,721.995361 
	C616.504456,703.408508 616.618469,685.547302 616.684753,667.685974 
	C616.686951,667.103821 616.203186,666.519836 615.945984,665.936707 
	C615.945984,665.936707 616.027466,665.982910 616.143066,665.660400 
	C615.831604,664.811829 615.404480,664.285889 614.977295,663.759949 
z"/>
<path fill="#53331D" opacity="1.000000" stroke="none" 
	d="
M705.053955,667.261963 
	C705.811584,663.926575 706.569214,660.591187 707.305176,657.351013 
	C710.443115,656.183777 711.901550,657.246216 713.116577,660.105774 
	C720.669312,677.880859 728.414246,695.574219 736.100708,713.292358 
	C737.468628,716.445679 738.713745,719.664124 740.285034,722.713745 
	C741.752502,725.561768 743.138367,728.785400 747.337219,728.307007 
	C747.313843,728.743225 747.290405,729.179443 746.557190,729.877319 
	C738.232788,730.027039 730.618225,729.915100 723.003662,729.803101 
	C723.946594,729.018921 725.096252,728.381165 725.781128,727.414185 
	C726.674927,726.152283 728.124817,724.264709 727.735291,723.278076 
	C725.130127,716.679321 722.099060,710.248657 719.080994,703.162903 
	C718.943542,702.360962 718.931458,702.159546 718.942139,701.580322 
	C714.628662,691.203308 710.292419,681.204163 705.953369,670.858643 
	C705.651672,669.428833 705.352844,668.345398 705.053955,667.261963 
z"/>
<path fill="#5F3B22" opacity="1.000000" stroke="none" 
	d="
M409.773071,662.013550 
	C411.227997,667.123657 412.256256,672.404907 414.222931,677.309814 
	C418.922791,689.031250 424.023712,700.593567 429.130615,712.145874 
	C429.435486,712.835571 431.217651,712.872192 432.864929,713.063049 
	C433.417511,712.913391 433.889526,712.891846 433.889526,712.891846 
	C431.670227,719.013672 429.450897,725.135437 426.818512,732.396606 
	C415.507721,707.903748 404.851532,684.828430 394.241577,661.093750 
	C399.091553,659.754578 403.895233,659.074707 408.001953,658.493469 
	C408.899841,660.278015 409.336456,661.145752 409.773071,662.013550 
z"/>
<path fill="#5F3B22" opacity="1.000000" stroke="none" 
	d="
M549.972412,729.770264 
	C536.269531,725.622314 527.482971,715.909180 525.962219,702.390137 
	C525.134460,695.031616 523.295410,686.265686 527.934326,678.784851 
	C529.209167,676.728882 530.498413,674.681885 532.303223,672.276245 
	C533.877502,670.610901 534.929504,669.300110 535.981567,667.989380 
	C535.981567,667.989380 535.997559,668.000000 536.215210,667.887939 
	C536.710327,667.575317 536.891846,667.309265 536.977417,666.977661 
	C536.977417,666.977661 537.000000,667.000000 537.212463,666.885376 
	C537.704895,666.569885 537.886414,666.302246 537.969604,665.967896 
	C537.969604,665.967896 537.982605,665.986389 538.311890,665.960083 
	C539.548157,665.747742 540.455017,665.561707 542.253723,665.192688 
	C541.189941,667.449097 540.257507,668.979553 539.792175,670.640930 
	C539.614075,671.276917 540.503174,672.211792 540.957520,673.386963 
	C535.112000,685.908325 535.374451,698.317322 540.592590,710.397949 
	C542.830078,715.578125 546.960571,719.940613 550.267334,724.941162 
	C550.559814,725.444641 550.815796,725.681580 551.096069,725.915894 
	C551.120361,725.913330 551.168945,725.907593 551.095093,726.242065 
	C550.671692,727.641113 550.322021,728.705688 549.972412,729.770264 
z"/>
<path fill="#5F3B22" opacity="1.000000" stroke="none" 
	d="
M364.961761,662.075378 
	C365.299683,661.240112 365.637634,660.404907 366.009216,659.228638 
	C366.477936,658.928406 366.912994,658.969116 367.822296,659.207642 
	C368.603760,659.562317 368.911011,659.719116 369.218231,659.875916 
	C379.321442,665.328735 386.560364,673.321533 389.153046,684.591858 
	C391.007782,692.654114 391.095215,700.903748 385.894653,708.864441 
	C384.980408,710.607239 384.531372,711.868225 384.082336,713.129272 
	C383.955200,713.408508 383.770691,713.642456 383.062866,714.088623 
	C382.401093,714.909180 382.205261,715.472168 382.009399,716.035217 
	C381.759308,716.236328 381.513794,716.442932 381.097595,716.820923 
	C378.184753,718.927002 375.497650,720.946655 372.668762,722.743042 
	C372.076172,723.119385 370.961365,722.673523 370.154785,722.028503 
	C370.511261,720.963440 370.800201,720.476440 371.290283,719.857056 
	C371.742279,719.500671 371.894501,719.222717 371.911438,718.685852 
	C371.874725,718.480957 371.676880,718.114624 371.956055,717.967651 
	C372.454559,717.472778 372.673889,717.124756 372.953918,716.422729 
	C379.241974,705.756958 378.845917,694.499451 376.735321,683.405884 
	C375.186096,675.263184 371.044739,667.996094 364.961761,662.075378 
z"/>
<path fill="#5F3B22" opacity="1.000000" stroke="none" 
	d="
M599.969604,701.318909 
	C599.969666,701.318909 600.042358,701.737793 599.774780,702.163086 
	C599.021362,703.629150 598.535400,704.669861 598.049438,705.710571 
	C596.540161,709.044250 595.030945,712.377930 592.844482,715.888062 
	C591.455750,717.383911 590.744263,718.703430 590.032837,720.022949 
	C590.032837,720.022949 590.002441,720.002441 589.637390,720.008667 
	C587.994751,720.670959 586.768738,721.674561 585.423340,721.874329 
	C584.329529,722.036621 583.092712,721.235352 582.091370,720.562195 
	C584.204529,715.180847 586.145630,710.098694 588.392212,704.766968 
	C588.804077,698.352905 588.910522,692.188477 588.982788,685.643677 
	C586.265259,678.242371 584.549988,670.730957 578.850342,664.807251 
	C578.842041,662.840027 578.796143,661.322632 578.750244,659.805237 
	C578.750244,659.805237 578.835083,659.746704 579.181702,659.819092 
	C579.729675,659.899353 579.930969,659.907288 580.132263,659.915222 
	C580.132263,659.915222 580.565063,660.011108 580.921143,660.229736 
	C581.504089,660.711243 581.788513,660.872620 582.130554,660.932373 
	C589.316528,664.995239 595.711792,669.780945 598.093750,678.946167 
	C598.471802,679.724915 598.771057,679.865112 599.070374,680.005371 
	C599.070374,680.005310 598.994812,680.004883 598.997070,680.403259 
	C599.322815,687.640747 599.646240,694.479797 599.969604,701.318909 
z"/>
<path fill="#ECCCA9" opacity="1.000000" stroke="none" 
	d="
M123.573090,701.074463 
	C122.294685,693.977112 117.942184,689.267090 111.916512,686.291016 
	C100.174011,680.491577 88.486183,679.237549 77.244217,688.162598 
	C76.281883,685.491882 75.630325,683.057434 74.736816,680.294678 
	C83.084969,672.699890 93.115723,671.916992 103.542496,673.943298 
	C117.993179,676.751587 129.259506,687.693115 129.920593,699.650146 
	C127.882263,700.389221 125.915482,700.726562 123.573090,701.074463 
z"/>
<path fill="#FCFAF5" opacity="1.000000" stroke="none" 
	d="
M114.646095,641.455139 
	C106.086876,640.008118 97.983322,641.201294 90.189529,645.275513 
	C91.431984,637.015747 97.905151,634.174377 104.059944,630.999268 
	C105.166054,630.428650 106.225395,629.767395 107.649849,629.023315 
	C108.950462,629.544800 109.831673,630.559570 110.877518,630.774963 
	C116.027214,631.835632 121.220573,632.684265 126.536972,634.037842 
	C122.665642,636.797058 118.655869,639.126099 114.646095,641.455139 
z"/>
<path fill="#5F3B22" opacity="1.000000" stroke="none" 
	d="
M704.758118,667.350220 
	C705.352844,668.345398 705.651672,669.428833 705.641113,671.009399 
	C701.623779,681.084045 697.915894,690.661682 694.084961,700.556946 
	C696.977844,701.093018 699.041687,701.475403 700.667603,701.939331 
	C698.000122,702.056580 695.756592,701.969604 693.550781,702.217834 
	C693.024109,702.277100 692.623230,703.454773 692.164551,704.118042 
	C691.803162,705.183838 691.441772,706.249634 690.604126,707.641235 
	C689.112000,710.994080 688.096191,714.021057 687.080444,717.047974 
	C687.080444,717.047974 687.004883,717.000916 686.723755,716.821716 
	C685.735107,718.122803 685.027710,719.603088 684.320312,721.083435 
	C683.737366,721.043396 683.154480,721.003418 682.133057,720.921387 
	C685.728516,711.040100 689.762573,701.200867 694.209839,690.787842 
	C697.104980,683.823181 699.586914,677.432251 702.068848,671.041321 
	C702.866638,669.840393 703.664429,668.639404 704.758118,667.350220 
z"/>
<path fill="#53331D" opacity="1.000000" stroke="none" 
	d="
M578.435181,659.716309 
	C578.796143,661.322632 578.842041,662.840027 578.556763,664.623779 
	C571.328308,657.047424 560.860657,655.162964 552.335449,661.195374 
	C547.939758,664.305725 544.679382,669.020630 540.905945,673.010498 
	C540.503174,672.211792 539.614075,671.276917 539.792175,670.640930 
	C540.257507,668.979553 541.189941,667.449097 542.253723,665.192688 
	C540.455017,665.561707 539.548157,665.747742 538.300903,665.946838 
	C540.547913,663.898743 542.867310,661.286316 545.770569,659.875122 
	C556.426331,654.695618 567.294922,654.027710 578.435181,659.716309 
z"/>
<path fill="#9F5328" opacity="1.000000" stroke="none" 
	d="
M434.000854,712.685303 
	C433.889526,712.891846 433.417511,712.913391 433.182312,712.891113 
	C433.649658,709.314880 433.921295,705.604736 435.141663,702.238525 
	C437.939209,694.522156 441.199615,686.973633 444.941284,678.992554 
	C445.714386,677.402100 445.818329,676.175964 445.922272,674.949890 
	C445.922272,674.949890 446.000000,675.000000 446.297760,675.097168 
	C447.357056,673.849243 448.118561,672.504089 449.261780,671.158691 
	C450.402649,671.137207 451.161865,671.116089 451.921051,671.094971 
	C449.268707,677.718262 446.616333,684.341553 443.517120,691.409485 
	C442.732666,692.923950 442.395050,693.993835 442.057434,695.063660 
	C442.057434,695.063660 442.011871,695.007568 441.640289,695.071655 
	C441.206635,696.107605 441.144592,697.079407 441.082520,698.051270 
	C441.082520,698.051270 441.000000,698.007324 440.638184,697.950989 
	C439.878815,699.612732 439.481201,701.330872 439.083618,703.048950 
	C439.083618,703.048950 439.001221,703.007324 438.639771,702.962402 
	C438.206573,703.632568 438.134827,704.347778 438.063110,705.062927 
	C438.063110,705.062927 438.005615,705.006409 437.666687,704.993042 
	C436.530701,707.118042 435.733582,709.256348 434.936493,711.394714 
	C434.661713,711.756042 434.386932,712.117371 434.000854,712.685303 
z"/>
<path fill="#53331D" opacity="1.000000" stroke="none" 
	d="
M581.919312,720.861450 
	C583.092712,721.235352 584.329529,722.036621 585.423340,721.874329 
	C586.768738,721.674561 587.994751,720.670959 589.647705,720.023865 
	C583.392761,727.261047 575.175720,731.502319 565.396667,731.758301 
	C560.491211,731.886658 555.548401,730.584473 550.297363,729.849731 
	C550.322021,728.705688 550.671692,727.641113 551.397034,726.416504 
	C555.875549,728.158997 559.494751,730.363831 564.744324,729.611938 
	C571.755676,728.607544 576.938293,725.224792 581.919312,720.861450 
z"/>
<path fill="#FCFAF5" opacity="1.000000" stroke="none" 
	d="
M152.963608,778.089905 
	C158.412445,777.371338 163.861267,776.652771 169.757996,775.970520 
	C150.941360,782.446411 132.263474,781.252502 114.117004,771.348267 
	C114.006386,770.991821 114.029930,770.964600 114.417725,770.991455 
	C115.464775,771.096008 116.228279,770.983459 116.767944,771.279297 
	C128.098404,777.489624 140.562683,777.613525 152.963608,778.089905 
z"/>
<path fill="#5F3B22" opacity="1.000000" stroke="none" 
	d="
M452.072296,670.797485 
	C451.161865,671.116089 450.402649,671.137207 449.336121,670.748657 
	C450.591370,664.726196 450.548553,664.407227 447.912384,662.023254 
	C447.912384,662.023254 447.983856,662.013794 448.091156,661.667419 
	C447.740570,661.202515 447.282654,661.084045 446.824768,660.965515 
	C445.999817,660.579834 445.174866,660.194153 444.349915,659.808472 
	C444.658936,659.279236 444.958618,658.295593 445.278442,658.289001 
	C450.057159,658.190369 454.838531,658.220764 459.311554,658.220764 
	C456.656952,662.819580 454.440247,666.659790 452.072296,670.797485 
z"/>
<path fill="#FCFAF5" opacity="1.000000" stroke="none" 
	d="
M482.909119,667.006287 
	C483.280945,665.632507 483.652771,664.258728 484.273712,662.468018 
	C484.522858,662.051147 484.993652,662.048157 484.993652,662.048157 
	C484.630524,683.687439 484.267395,705.326660 483.822571,727.417725 
	C483.484894,727.722168 483.280182,727.522339 483.008301,726.663818 
	C482.896301,706.373840 482.902710,686.690063 482.909119,667.006287 
z"/>
<path fill="#E5C09B" opacity="1.000000" stroke="none" 
	d="
M616.053040,666.399780 
	C616.203186,666.519836 616.686951,667.103821 616.684753,667.685974 
	C616.618469,685.547302 616.504456,703.408508 616.215698,721.633545 
	C616.070374,719.520203 616.136963,717.043030 616.139282,714.565796 
	C616.154053,698.664795 616.154785,682.763794 616.053040,666.399780 
z"/>
<path fill="#FCFAF5" opacity="1.000000" stroke="none" 
	d="
M463.262878,730.459229 
	C481.728363,730.074097 500.333771,730.103699 519.397461,730.155273 
	C518.976257,730.452026 518.096802,730.966187 517.217163,730.966431 
	C499.279022,730.970947 481.340881,730.916565 463.262878,730.459229 
z"/>
<path fill="#53331D" opacity="1.000000" stroke="none" 
	d="
M301.520538,661.928711 
	C299.950470,661.067261 298.770599,659.344543 297.381287,659.154724 
	C294.158112,658.714417 290.833740,659.014526 287.056488,659.014526 
	C287.400452,660.921082 287.625641,662.169312 287.857666,663.821289 
	C285.007843,662.653076 282.151184,661.081116 279.370453,658.950195 
	C288.975494,658.223450 298.504639,658.055603 308.033783,657.887817 
	C307.109772,658.585022 306.230194,659.354187 305.249847,659.960327 
	C304.152771,660.638550 302.964294,661.169006 301.520538,661.928711 
z"/>
<path fill="#9F5328" opacity="1.000000" stroke="none" 
	d="
M287.611328,666.156006 
	C288.228760,667.069641 288.947693,668.266296 288.953705,669.466553 
	C289.029205,684.562805 289.023315,699.659729 288.952454,714.755981 
	C288.947662,715.772949 288.253418,716.786682 287.486633,717.865967 
	C287.376892,716.830627 287.903198,715.732117 287.907104,714.631714 
	C287.961182,699.367615 287.952087,684.103333 287.919647,668.839111 
	C287.917938,668.039246 287.568909,667.240234 287.611328,666.156006 
z"/>
<path fill="#53331D" opacity="1.000000" stroke="none" 
	d="
M485.331268,661.950623 
	C484.993652,662.048157 484.522858,662.051147 484.295837,662.112854 
	C482.961609,661.122253 481.972015,659.370667 480.723175,659.160706 
	C477.979523,658.699341 475.104797,659.017578 471.938446,659.017578 
	C471.938446,660.278198 471.938446,661.352844 471.909363,662.814697 
	C469.261383,661.763489 466.642517,660.324951 464.390442,658.465088 
	C472.826935,657.987244 480.896790,657.891541 488.966187,657.923096 
	C489.983429,657.927124 490.998077,658.599976 492.013916,658.962952 
	C489.898895,659.926331 487.783875,660.889709 485.331268,661.950623 
z"/>
<path fill="#53331D" opacity="1.000000" stroke="none" 
	d="
M410.023621,661.725342 
	C409.336456,661.145752 408.899841,660.278015 408.001953,658.493469 
	C403.895233,659.074707 399.091553,659.754578 394.077820,660.790039 
	C392.332611,660.356079 390.797485,659.566650 389.573975,658.346436 
	C398.870422,657.916748 407.855225,657.917664 416.840057,657.918579 
	C414.651398,659.091370 412.462769,660.264221 410.023621,661.725342 
z"/>
<path fill="#FCFAF5" opacity="1.000000" stroke="none" 
	d="
M197.668503,632.402100 
	C197.053513,633.000427 196.581650,633.207520 195.701202,633.671204 
	C193.089539,634.020447 190.886459,634.113159 188.683365,634.205811 
	C186.619034,631.963257 184.554718,629.720642 182.767395,627.199036 
	C187.138718,631.018982 192.818726,630.518311 197.668503,632.402100 
z"/>
<path fill="#FCFAF5" opacity="1.000000" stroke="none" 
	d="
M701.699158,671.092529 
	C699.586914,677.432251 697.104980,683.823181 694.415588,690.469238 
	C694.059998,683.280334 697.981140,677.316223 701.699158,671.092529 
z"/>
<path fill="#9F5328" opacity="1.000000" stroke="none" 
	d="
M640.941223,658.019958 
	C629.830139,658.051880 618.730286,658.051880 607.630493,658.051880 
	C607.628540,657.763000 607.626648,657.474060 607.624695,657.185181 
	C618.610046,657.185181 629.595337,657.185181 640.789429,657.561646 
	C640.998230,657.938110 640.952515,657.988037 640.941223,658.019958 
z"/>
<path fill="#FCFAF5" opacity="1.000000" stroke="none" 
	d="
M627.394287,693.884033 
	C626.928955,683.309082 626.870605,672.553833 626.893433,661.326294 
	C627.318787,661.511963 627.962463,662.169861 627.962158,662.827515 
	C627.957581,673.119568 627.869873,683.411682 627.394287,693.884033 
z"/>
<path fill="#9F5328" opacity="1.000000" stroke="none" 
	d="
M307.754944,657.572510 
	C298.504639,658.055603 288.975494,658.223450 279.162598,658.726074 
	C278.302429,658.592407 277.726044,658.123962 276.659302,657.257141 
	C287.379456,657.257141 297.427795,657.257141 307.754944,657.572510 
z"/>
<path fill="#9F5328" opacity="1.000000" stroke="none" 
	d="
M492.384460,658.994019 
	C490.998077,658.599976 489.983429,657.927124 488.966187,657.923096 
	C480.896790,657.891541 472.826935,657.987244 464.286255,658.162231 
	C464.160583,657.851685 464.503754,657.050232 464.851379,657.048218 
	C473.591370,656.999512 482.332428,656.994385 491.071259,657.121887 
	C491.891296,657.133911 492.697754,658.075073 493.510498,658.584839 
	C493.417603,658.687439 493.341919,658.821289 493.227325,658.884705 
	C493.086914,658.962280 492.913910,658.981018 492.384460,658.994019 
z"/>
<path fill="#9F5328" opacity="1.000000" stroke="none" 
	d="
M692.521484,703.910156 
	C692.623230,703.454773 693.024109,702.277100 693.550781,702.217834 
	C695.756592,701.969604 698.000122,702.056580 701.127930,701.938477 
	C707.657166,701.890137 713.288208,701.924133 718.919312,701.958130 
	C718.931458,702.159546 718.943542,702.360962 718.913818,702.861755 
	C710.207458,703.341553 701.542969,703.521912 692.521484,703.910156 
z"/>
<path fill="#E5C09B" opacity="1.000000" stroke="none" 
	d="
M416.608093,657.573547 
	C407.855225,657.917664 398.870422,657.916748 389.443848,658.080444 
	C389.312347,657.875061 389.621613,657.182678 389.933014,657.181763 
	C398.747223,657.154724 407.561676,657.197327 416.608093,657.573547 
z"/>
<path fill="#E5C09B" opacity="1.000000" stroke="none" 
	d="
M600.323975,701.076294 
	C599.646240,694.479797 599.322815,687.640747 598.996338,680.365479 
	C602.523254,686.658142 601.536987,693.751038 600.323975,701.076294 
z"/>
<path fill="#FCFAF5" opacity="1.000000" stroke="none" 
	d="
M722.645142,729.998962 
	C730.618225,729.915100 738.232788,730.027039 746.297607,730.095825 
	C738.594116,730.099976 730.440369,730.147400 722.645142,729.998962 
z"/>
<path fill="#ECCCA9" opacity="1.000000" stroke="none" 
	d="
M447.922882,662.450439 
	C450.548553,664.407227 450.591370,664.726196 448.954437,670.749023 
	C448.118561,672.504089 447.357056,673.849243 446.259735,675.071533 
	C446.593750,670.925049 447.263550,666.901367 447.922882,662.450439 
z"/>
<path fill="#E5C09B" opacity="1.000000" stroke="none" 
	d="
M69.686729,703.805420 
	C70.096664,709.481995 70.148453,715.419678 70.131042,721.848206 
	C67.810051,716.328796 68.714310,710.191833 69.686729,703.805420 
z"/>
<path fill="#ECCCA9" opacity="1.000000" stroke="none" 
	d="
M684.319458,721.439392 
	C685.027710,719.603088 685.735107,718.122803 686.757324,716.850647 
	C686.679199,720.063354 686.286377,723.067993 685.838989,726.500122 
	C685.295776,725.216919 684.807251,723.506165 684.319458,721.439392 
z"/>
<path fill="#ECCCA9" opacity="1.000000" stroke="none" 
	d="
M687.434692,716.942444 
	C688.096191,714.021057 689.112000,710.994080 690.499146,707.969360 
	C689.843262,710.926697 688.816040,713.881836 687.434692,716.942444 
z"/>
<path fill="#ECCCA9" opacity="1.000000" stroke="none" 
	d="
M435.315735,711.236816 
	C435.733582,709.256348 436.530701,707.118042 437.705231,705.004944 
	C437.286743,707.046448 436.490845,709.062744 435.315735,711.236816 
z"/>
<path fill="#53331D" opacity="1.000000" stroke="none" 
	d="
M535.670898,668.119507 
	C534.929504,669.300110 533.877502,670.610901 532.477966,671.968750 
	C533.207031,670.760498 534.283630,669.505127 535.670898,668.119507 
z"/>
<path fill="#53331D" opacity="1.000000" stroke="none" 
	d="
M590.334778,719.882080 
	C590.744263,718.703430 591.455750,717.383911 592.509460,716.007324 
	C592.113403,717.213806 591.375061,718.477539 590.334778,719.882080 
z"/>
<path fill="#ECCCA9" opacity="1.000000" stroke="none" 
	d="
M439.434814,702.945312 
	C439.481201,701.330872 439.878815,699.612732 440.679779,697.969360 
	C440.650787,699.643311 440.218384,701.242554 439.434814,702.945312 
z"/>
<path fill="#FCFAF5" opacity="1.000000" stroke="none" 
	d="
M171.365997,775.918884 
	C172.112473,775.265991 173.213760,774.669983 174.673416,774.052734 
	C173.928131,774.679626 172.824493,775.327698 171.365997,775.918884 
z"/>
<path fill="#E5C09B" opacity="1.000000" stroke="none" 
	d="
M598.405334,705.760986 
	C598.535400,704.669861 599.021362,703.629150 599.666748,702.346191 
	C599.471191,703.339783 599.116150,704.575623 598.405334,705.760986 
z"/>
<path fill="#53331D" opacity="1.000000" stroke="none" 
	d="
M384.395233,712.957947 
	C384.531372,711.868225 384.980408,710.607239 385.738403,709.176147 
	C385.600952,710.266296 385.154541,711.526489 384.395233,712.957947 
z"/>
<path fill="#FCFAF5" opacity="1.000000" stroke="none" 
	d="
M113.993980,771.004761 
	C113.042862,770.566467 112.104149,770.115173 111.082687,769.331299 
	C110.999939,768.998718 111.022957,768.966492 111.364197,768.993225 
	C112.480263,769.668152 113.255096,770.316406 114.029930,770.964600 
	C114.029930,770.964600 114.006386,770.991821 113.993980,771.004761 
z"/>
<path fill="#FCFAF5" opacity="1.000000" stroke="none" 
	d="
M106.984787,765.016968 
	C106.339195,764.233826 105.693611,763.450684 105.025085,762.333191 
	C105.002144,761.998840 105.020004,761.983276 105.346313,762.075806 
	C106.126762,763.104248 106.580887,764.040222 107.021744,764.985168 
	C107.008469,764.994202 106.984779,765.016968 106.984787,765.016968 
z"/>
<path fill="#FCFAF5" opacity="1.000000" stroke="none" 
	d="
M182.967621,626.639038 
	C182.027817,626.530884 180.972565,626.106750 179.948868,625.291748 
	C180.937653,625.374817 181.894897,625.848877 182.967621,626.639038 
z"/>
<path fill="#ECCCA9" opacity="1.000000" stroke="none" 
	d="
M442.388611,694.975464 
	C442.395050,693.993835 442.732666,692.923950 443.450317,691.780396 
	C443.460175,692.766846 443.089996,693.827087 442.388611,694.975464 
z"/>
<path fill="#ECCCA9" opacity="1.000000" stroke="none" 
	d="
M445.557739,675.079468 
	C445.818329,676.175964 445.714386,677.402100 445.266174,678.835938 
	C445.012299,677.765442 445.102753,676.487305 445.557739,675.079468 
z"/>
<path fill="#ECCCA9" opacity="1.000000" stroke="none" 
	d="
M230.412552,711.947327 
	C230.169754,711.408508 230.218643,710.744263 230.556549,710.037598 
	C230.798447,710.604126 230.751343,711.213013 230.412552,711.947327 
z"/>
<path fill="#ECCCA9" opacity="1.000000" stroke="none" 
	d="
M441.429688,697.950562 
	C441.144592,697.079407 441.206635,696.107605 441.676422,695.072754 
	C441.981689,695.956421 441.879272,696.903137 441.429688,697.950562 
z"/>
<path fill="#FCFAF5" opacity="1.000000" stroke="none" 
	d="
M179.976028,624.665833 
	C179.396011,624.852966 178.714966,624.748352 177.775726,624.493652 
	C178.303345,624.353821 179.089157,624.363953 179.976028,624.665833 
z"/>
<path fill="#E5C09B" opacity="1.000000" stroke="none" 
	d="
M70.696869,699.747192 
	C70.934731,700.583740 70.835472,701.666931 70.394943,703.005310 
	C70.155693,702.171631 70.257721,701.082703 70.696869,699.747192 
z"/>
<path fill="#E5C09B" opacity="1.000000" stroke="none" 
	d="
M614.106934,661.406494 
	C614.554932,661.645691 614.931885,662.247620 615.158081,663.191101 
	C614.683472,662.944885 614.359619,662.357117 614.106934,661.406494 
z"/>
<path fill="#ECCCA9" opacity="1.000000" stroke="none" 
	d="
M76.599274,688.033691 
	C76.818802,688.572937 76.716164,689.203674 76.243835,689.948364 
	C76.008469,689.416565 76.142784,688.770935 76.599274,688.033691 
z"/>
<path fill="#FCFAF5" opacity="1.000000" stroke="none" 
	d="
M109.674019,628.067749 
	C109.491058,628.501282 108.981476,628.950073 108.190994,629.183716 
	C108.389198,628.673340 108.868301,628.378174 109.674019,628.067749 
z"/>
<path fill="#53331D" opacity="1.000000" stroke="none" 
	d="
M382.276917,715.889648 
	C382.205261,715.472168 382.401093,714.909180 382.867615,714.200745 
	C382.940369,714.618225 382.742401,715.181152 382.276917,715.889648 
z"/>
<path fill="#ECCCA9" opacity="1.000000" stroke="none" 
	d="
M438.384827,704.992188 
	C438.134827,704.347778 438.206573,703.632568 438.680450,702.980347 
	C438.957245,703.669373 438.831909,704.295410 438.384827,704.992188 
z"/>
<path fill="#E5C09B" opacity="1.000000" stroke="none" 
	d="
M614.979248,664.127563 
	C615.404480,664.285889 615.831604,664.811829 616.123962,665.703125 
	C615.653198,665.544067 615.317200,665.019592 614.979248,664.127563 
z"/>
<path fill="#53331D" opacity="1.000000" stroke="none" 
	d="
M369.104553,659.621338 
	C368.911011,659.719116 368.603760,659.562317 368.151001,659.185669 
	C368.333954,659.099426 368.662415,659.233093 369.104553,659.621338 
z"/>
<path fill="#53331D" opacity="1.000000" stroke="none" 
	d="
M580.044250,659.684570 
	C579.930969,659.907288 579.729675,659.899353 579.232544,659.827515 
	C579.276611,659.660339 579.616394,659.557068 580.044250,659.684570 
z"/>
<path fill="#E5C09B" opacity="1.000000" stroke="none" 
	d="
M71.730255,697.985352 
	C71.933205,698.310242 71.804840,698.734497 71.350746,699.261963 
	C71.149658,698.938354 71.274292,698.511597 71.730255,697.985352 
z"/>
<path fill="#FCFAF5" opacity="1.000000" stroke="none" 
	d="
M107.984055,766.018066 
	C107.683876,765.858765 107.383690,765.699524 107.034142,765.278564 
	C106.984779,765.016968 107.008469,764.994202 107.232590,765.101685 
	C107.716759,765.412354 107.906029,765.668030 108.014328,765.986084 
	C108.004128,765.996094 107.984055,766.018066 107.984055,766.018066 
z"/>
<path fill="#FCFAF5" opacity="1.000000" stroke="none" 
	d="
M108.985184,767.016602 
	C108.686020,766.857239 108.386864,766.697876 108.035881,766.278259 
	C107.984055,766.018066 108.004128,765.996094 108.224945,766.104614 
	C108.708313,766.414307 108.901215,766.668457 109.014587,766.985413 
	C109.004700,766.995300 108.985184,767.016602 108.985184,767.016602 
z"/>
<path fill="#FCFAF5" opacity="1.000000" stroke="none" 
	d="
M109.980835,768.021423 
	C109.682167,767.860352 109.383499,767.699219 109.035011,767.277344 
	C108.985184,767.016602 109.004700,766.995300 109.227493,767.101318 
	C109.716209,767.407471 109.907578,767.663513 110.013550,767.986267 
	C110.002739,767.997253 109.980835,768.021423 109.980835,768.021423 
z"/>
<path fill="#FCFAF5" opacity="1.000000" stroke="none" 
	d="
M110.985519,769.012939 
	C110.673737,768.865234 110.376358,768.703369 110.029907,768.281494 
	C109.980835,768.021423 110.002739,767.997253 110.229645,768.096313 
	C110.728409,768.391479 110.917213,768.648499 111.022957,768.966492 
	C111.022957,768.966492 110.999939,768.998718 110.985519,769.012939 
z"/>
<path fill="#FCFAF5" opacity="1.000000" stroke="none" 
	d="
M88.708549,645.989380 
	C88.854370,646.285339 88.727524,646.666626 88.243912,647.045044 
	C88.070053,646.719666 88.252968,646.397217 88.708549,645.989380 
z"/>
<path fill="#53331D" opacity="1.000000" stroke="none" 
	d="
M582.039307,660.679443 
	C581.788513,660.872620 581.504089,660.711243 581.142517,660.239441 
	C581.321228,660.162537 581.634644,660.294495 582.039307,660.679443 
z"/>
<path fill="#E5C09B" opacity="1.000000" stroke="none" 
	d="
M598.986328,679.755188 
	C598.771057,679.865112 598.471802,679.724915 598.089111,679.323486 
	C598.304504,679.209839 598.603394,679.357422 598.986328,679.755188 
z"/>
<path fill="#ECCCA9" opacity="1.000000" stroke="none" 
	d="
M446.893494,661.258911 
	C447.282654,661.084045 447.740570,661.202515 448.083801,661.702698 
	C447.633514,661.906982 447.297852,661.729614 446.893494,661.258911 
z"/>
<path fill="#53331D" opacity="1.000000" stroke="none" 
	d="
M537.733887,666.056335 
	C537.886414,666.302246 537.704895,666.569885 537.200989,666.874268 
	C537.150757,666.700134 537.324402,666.422485 537.733887,666.056335 
z"/>
<path fill="#53331D" opacity="1.000000" stroke="none" 
	d="
M536.744995,667.069397 
	C536.891846,667.309265 536.710327,667.575317 536.210754,667.880676 
	C536.045105,667.635559 536.219788,667.360779 536.744995,667.069397 
z"/>
<path fill="#ECCCA9" opacity="1.000000" stroke="none" 
	d="
M228.294357,717.035645 
	C228.234161,716.833984 228.432861,716.546021 228.877930,716.154114 
	C228.933960,716.349854 228.743622,716.649536 228.294357,717.035645 
z"/>
<path fill="#ECCCA9" opacity="1.000000" stroke="none" 
	d="
M229.317108,716.028564 
	C229.106934,715.795715 229.238022,715.514954 229.654953,715.145752 
	C229.756729,715.323120 229.662582,715.630859 229.317108,716.028564 
z"/>
<path fill="#FCFAF5" opacity="1.000000" stroke="none" 
	d="
M89.687149,644.982300 
	C89.874191,645.335510 89.797043,645.761902 89.312355,646.084473 
	C89.077530,645.672241 89.250252,645.363831 89.687149,644.982300 
z"/>
<path fill="#FCFAF5" opacity="1.000000" stroke="none" 
	d="
M220.009369,651.687988 
	C219.662552,651.781372 219.211838,651.560059 218.873260,650.883179 
	C219.292084,650.742798 219.598770,651.058044 220.009369,651.687988 
z"/>
<path fill="#ECCCA9" opacity="1.000000" stroke="none" 
	d="
M114.948700,641.652588 
	C118.655869,639.126099 122.665642,636.797058 126.879776,634.182983 
	C154.900406,644.563843 171.986053,674.235596 156.394348,699.854370 
	C153.556381,699.382507 151.051819,698.547119 148.483231,698.229492 
	C146.928802,698.037292 145.275131,698.647522 143.235458,698.850464 
	C151.863373,687.399109 147.656815,665.181702 135.543350,653.776794 
	C129.625488,648.205078 123.149086,643.899414 114.948700,641.652588 
z"/>
<path fill="#ECCCA9" opacity="1.000000" stroke="none" 
	d="
M188.762955,634.567627 
	C190.886459,634.113159 193.089539,634.020447 195.764984,633.946960 
	C202.571899,643.053467 203.454437,653.334045 202.367859,663.873169 
	C201.118103,675.995056 196.666931,686.968445 189.423996,696.802673 
	C188.707230,697.775879 188.349106,699.013306 188.030212,700.446655 
	C183.542755,700.887939 178.849579,701.010620 174.001221,700.785400 
	C191.652618,684.905640 197.914154,665.700134 192.043488,642.734741 
	C191.353729,640.036499 189.927414,637.526611 188.762955,634.567627 
z"/>
<path fill="#ECCCA9" opacity="1.000000" stroke="none" 
	d="
M111.364197,768.993225 
	C110.917213,768.648499 110.728409,768.391479 110.240456,768.085327 
	C109.907578,767.663513 109.716209,767.407471 109.237373,767.091431 
	C108.901215,766.668457 108.708313,766.414307 108.235146,766.094543 
	C107.906029,765.668030 107.716759,765.412354 107.245865,765.092651 
	C106.580887,764.040222 106.126762,763.104248 105.355453,762.068237 
	C103.268776,755.983032 101.337044,750.348083 102.374535,743.583069 
	C103.383728,737.002563 106.238876,732.343628 110.914665,728.473083 
	C117.465225,723.050659 124.333092,719.207031 133.576477,718.545837 
	C153.555389,717.116638 173.843658,718.986938 193.500534,713.875732 
	C205.157074,710.844788 216.122528,706.409180 223.495819,696.035217 
	C223.955994,695.387756 224.773071,694.993958 225.624405,694.231812 
	C227.921188,698.754211 229.151016,703.055481 225.166367,708.000061 
	C216.067017,719.291443 208.475845,731.916992 198.607239,742.439148 
	C186.617828,755.222595 172.125549,765.218506 155.847290,772.336487 
	C154.445129,772.949585 153.921417,775.571655 152.976639,777.675171 
	C140.562683,777.613525 128.098404,777.489624 116.767944,771.279297 
	C116.228279,770.983459 115.464775,771.096008 114.417725,770.991455 
	C113.255096,770.316406 112.480263,769.668152 111.364197,768.993225 
z"/>
<path fill="#000000" opacity="1.000000" stroke="none" 
	d="
M371.676880,718.114624 
	C371.676880,718.114624 371.874725,718.480957 371.674622,718.786133 
	C371.346069,719.390686 371.217621,719.690063 371.089111,719.989441 
	C370.800201,720.476440 370.511261,720.963440 370.104919,721.710571 
	C364.478333,724.678406 359.816132,728.836304 353.117859,729.466125 
	C347.947327,729.952271 343.507446,729.050598 339.745087,726.068237 
	C331.464264,719.504028 328.166992,710.184570 325.971405,700.156433 
	C323.952911,690.937439 325.664948,682.337891 329.195160,674.039429 
	C335.038818,660.302979 348.755676,652.281555 364.600708,662.034851 
	C371.044739,667.996094 375.186096,675.263184 376.735321,683.405884 
	C378.845917,694.499451 379.241974,705.756958 372.690247,716.459473 
	C372.136261,717.271790 371.906555,717.693237 371.676880,718.114624 
z"/>
<path fill="#592F17" opacity="1.000000" stroke="none" 
	d="
M482.521667,667.108398 
	C482.902710,686.690063 482.896301,706.373840 482.843567,726.523560 
	C482.199402,725.978882 481.086060,724.971130 481.080200,723.956970 
	C480.975708,705.888184 480.990417,687.818542 481.054504,669.749390 
	C481.057526,668.901794 481.758362,668.056702 482.521667,667.108398 
z"/>
<path fill="#000000" opacity="1.000000" stroke="none" 
	d="
M718.942139,701.580322 
	C713.288208,701.924133 707.657166,701.890137 701.565796,701.856995 
	C699.041687,701.475403 696.977844,701.093018 694.084961,700.556946 
	C697.915894,690.661682 701.623779,681.084045 705.643921,671.355713 
	C710.292419,681.204163 714.628662,691.203308 718.942139,701.580322 
z"/>
<path fill="#000000" opacity="1.000000" stroke="none" 
	d="
M582.091370,720.562256 
	C576.938293,725.224792 571.755676,728.607544 564.744324,729.611938 
	C559.494751,730.363831 555.875549,728.158997 551.470825,726.082031 
	C551.168945,725.907593 551.120361,725.913330 551.049805,725.657227 
	C550.729797,725.158997 550.480408,724.916809 550.230957,724.674622 
	C546.960571,719.940613 542.830078,715.578125 540.592590,710.397949 
	C535.374451,698.317322 535.112000,685.908325 540.957520,673.386963 
	C544.679382,669.020630 547.939758,664.305725 552.335449,661.195374 
	C560.860657,655.162964 571.328308,657.047424 578.519165,665.073608 
	C584.549988,670.730957 586.265259,678.242371 588.574097,685.809326 
	C588.161987,692.575745 588.124390,698.796143 588.086731,705.016541 
	C586.145630,710.098694 584.204529,715.180847 582.091370,720.562256 
z"/>
<path fill="#53331D" opacity="1.000000" stroke="none" 
	d="
M550.267334,724.941162 
	C550.480408,724.916809 550.729797,725.158997 551.025513,725.659851 
	C550.815796,725.681580 550.559814,725.444641 550.267334,724.941162 
z"/>
<path fill="#53331D" opacity="1.000000" stroke="none" 
	d="
M371.956055,717.967651 
	C371.906555,717.693237 372.136261,717.271790 372.629608,716.813599 
	C372.673889,717.124756 372.454559,717.472778 371.956055,717.967651 
z"/>
<path fill="#53331D" opacity="1.000000" stroke="none" 
	d="
M371.290283,719.857056 
	C371.217621,719.690063 371.346069,719.390686 371.711304,718.991028 
	C371.894501,719.222717 371.742279,719.500671 371.290283,719.857056 
z"/>
<path fill="#ECCCA9" opacity="1.000000" stroke="none" 
	d="
M588.392212,704.766968 
	C588.124390,698.796143 588.161987,692.575745 588.608276,686.189697 
	C588.910522,692.188477 588.804077,698.352905 588.392212,704.766968 
z"/>
</svg>